M48
; DRILL file KiCad 10.0.3 date 2026-06-20T12:41:26
; FORMAT={-:-/ absolute / inch / decimal}
; #@! TF.CreationDate,2026-06-20T12:41:26+05:30
; #@! TF.GenerationSoftware,Kicad,Pcbnew,10.0.3
; #@! TF.FileFunction,NonPlated,1,2,NPTH
FMAT,2
INCH
; #@! TA.AperFunction,NonPlated,NPTH,ComponentDrill
T1C0.0669
; #@! TA.AperFunction,NonPlated,NPTH,ComponentDrill
T2C0.1575
%
G90
G05
T1
X8.9122Y-4.148
X8.9244Y-3.2705
X8.9307Y-2.426
X9.3122Y-4.148
X9.3244Y-3.2705
X9.3307Y-2.426
X9.8437Y-2.4209
X9.85Y-3.2705
X9.85Y-4.1
X10.2437Y-2.4209
X10.25Y-3.2705
X10.25Y-4.1
X10.75Y-3.275
X10.75Y-4.1
X10.7567Y-2.4205
X11.15Y-3.275
X11.15Y-4.1
X11.1567Y-2.4205
T2
X9.1122Y-4.148
X9.1244Y-3.2705
X9.1307Y-2.426
X10.0437Y-2.4209
X10.05Y-3.2705
X10.05Y-4.1
X10.95Y-3.275
X10.95Y-4.1
X10.9567Y-2.4205
M30
