%TF.GenerationSoftware,KiCad,Pcbnew,10.0.3*%
%TF.CreationDate,2026-06-20T12:41:26+05:30*%
%TF.ProjectId,hackpad,6861636b-7061-4642-9e6b-696361645f70,rev?*%
%TF.SameCoordinates,Original*%
%TF.FileFunction,Legend,Top*%
%TF.FilePolarity,Positive*%
%FSLAX46Y46*%
G04 Gerber Fmt 4.6, Leading zero omitted, Abs format (unit mm)*
G04 Created by KiCad (PCBNEW 10.0.3) date 2026-06-20 12:41:26*
%MOMM*%
%LPD*%
G01*
G04 APERTURE LIST*
G04 Aperture macros list*
%AMRoundRect*
0 Rectangle with rounded corners*
0 $1 Rounding radius*
0 $2 $3 $4 $5 $6 $7 $8 $9 X,Y pos of 4 corners*
0 Add a 4 corners polygon primitive as box body*
4,1,4,$2,$3,$4,$5,$6,$7,$8,$9,$2,$3,0*
0 Add four circle primitives for the rounded corners*
1,1,$1+$1,$2,$3*
1,1,$1+$1,$4,$5*
1,1,$1+$1,$6,$7*
1,1,$1+$1,$8,$9*
0 Add four rect primitives between the rounded corners*
20,1,$1+$1,$2,$3,$4,$5,0*
20,1,$1+$1,$4,$5,$6,$7,0*
20,1,$1+$1,$6,$7,$8,$9,0*
20,1,$1+$1,$8,$9,$2,$3,0*%
G04 Aperture macros list end*
%ADD10C,0.150000*%
%ADD11C,0.101600*%
%ADD12C,0.120000*%
%ADD13C,0.100000*%
%ADD14C,0.127000*%
%ADD15C,0.504000*%
%ADD16RoundRect,0.112500X0.112500X-0.187500X0.112500X0.187500X-0.112500X0.187500X-0.112500X-0.187500X0*%
%ADD17RoundRect,0.140000X-0.140000X-0.170000X0.140000X-0.170000X0.140000X0.170000X-0.140000X0.170000X0*%
%ADD18R,2.000000X2.000000*%
%ADD19C,2.000000*%
%ADD20R,3.200000X2.000000*%
%ADD21C,1.700000*%
%ADD22C,4.000000*%
%ADD23C,2.200000*%
%ADD24RoundRect,0.135000X-0.135000X-0.185000X0.135000X-0.185000X0.135000X0.185000X-0.135000X0.185000X0*%
%ADD25RoundRect,0.140000X0.021213X-0.219203X0.219203X-0.021213X-0.021213X0.219203X-0.219203X0.021213X0*%
%ADD26RoundRect,0.140000X0.219203X0.021213X0.021213X0.219203X-0.219203X-0.021213X-0.021213X-0.219203X0*%
%ADD27R,1.600000X0.850000*%
%ADD28RoundRect,0.140000X0.140000X0.170000X-0.140000X0.170000X-0.140000X-0.170000X0.140000X-0.170000X0*%
%ADD29R,0.400000X2.000000*%
%ADD30RoundRect,0.200000X1.175000X0.800000X-1.175000X0.800000X-1.175000X-0.800000X1.175000X-0.800000X0*%
%ADD31RoundRect,0.200000X-1.175000X-0.800000X1.175000X-0.800000X1.175000X0.800000X-1.175000X0.800000X0*%
%ADD32RoundRect,0.110000X-0.440000X1.140000X-0.440000X-1.140000X0.440000X-1.140000X0.440000X1.140000X0*%
G04 APERTURE END LIST*
D10*
X284989819Y-85433093D02*
X283989819Y-85433093D01*
X283989819Y-85433093D02*
X283989819Y-85194998D01*
X283989819Y-85194998D02*
X284037438Y-85052141D01*
X284037438Y-85052141D02*
X284132676Y-84956903D01*
X284132676Y-84956903D02*
X284227914Y-84909284D01*
X284227914Y-84909284D02*
X284418390Y-84861665D01*
X284418390Y-84861665D02*
X284561247Y-84861665D01*
X284561247Y-84861665D02*
X284751723Y-84909284D01*
X284751723Y-84909284D02*
X284846961Y-84956903D01*
X284846961Y-84956903D02*
X284942200Y-85052141D01*
X284942200Y-85052141D02*
X284989819Y-85194998D01*
X284989819Y-85194998D02*
X284989819Y-85433093D01*
X283989819Y-84528331D02*
X283989819Y-83861665D01*
X283989819Y-83861665D02*
X284989819Y-84290236D01*
X245723333Y-44139580D02*
X245675714Y-44187200D01*
X245675714Y-44187200D02*
X245532857Y-44234819D01*
X245532857Y-44234819D02*
X245437619Y-44234819D01*
X245437619Y-44234819D02*
X245294762Y-44187200D01*
X245294762Y-44187200D02*
X245199524Y-44091961D01*
X245199524Y-44091961D02*
X245151905Y-43996723D01*
X245151905Y-43996723D02*
X245104286Y-43806247D01*
X245104286Y-43806247D02*
X245104286Y-43663390D01*
X245104286Y-43663390D02*
X245151905Y-43472914D01*
X245151905Y-43472914D02*
X245199524Y-43377676D01*
X245199524Y-43377676D02*
X245294762Y-43282438D01*
X245294762Y-43282438D02*
X245437619Y-43234819D01*
X245437619Y-43234819D02*
X245532857Y-43234819D01*
X245532857Y-43234819D02*
X245675714Y-43282438D01*
X245675714Y-43282438D02*
X245723333Y-43330057D01*
X246104286Y-43330057D02*
X246151905Y-43282438D01*
X246151905Y-43282438D02*
X246247143Y-43234819D01*
X246247143Y-43234819D02*
X246485238Y-43234819D01*
X246485238Y-43234819D02*
X246580476Y-43282438D01*
X246580476Y-43282438D02*
X246628095Y-43330057D01*
X246628095Y-43330057D02*
X246675714Y-43425295D01*
X246675714Y-43425295D02*
X246675714Y-43520533D01*
X246675714Y-43520533D02*
X246628095Y-43663390D01*
X246628095Y-43663390D02*
X246056667Y-44234819D01*
X246056667Y-44234819D02*
X246675714Y-44234819D01*
X223940476Y-33182200D02*
X224083333Y-33229819D01*
X224083333Y-33229819D02*
X224321428Y-33229819D01*
X224321428Y-33229819D02*
X224416666Y-33182200D01*
X224416666Y-33182200D02*
X224464285Y-33134580D01*
X224464285Y-33134580D02*
X224511904Y-33039342D01*
X224511904Y-33039342D02*
X224511904Y-32944104D01*
X224511904Y-32944104D02*
X224464285Y-32848866D01*
X224464285Y-32848866D02*
X224416666Y-32801247D01*
X224416666Y-32801247D02*
X224321428Y-32753628D01*
X224321428Y-32753628D02*
X224130952Y-32706009D01*
X224130952Y-32706009D02*
X224035714Y-32658390D01*
X224035714Y-32658390D02*
X223988095Y-32610771D01*
X223988095Y-32610771D02*
X223940476Y-32515533D01*
X223940476Y-32515533D02*
X223940476Y-32420295D01*
X223940476Y-32420295D02*
X223988095Y-32325057D01*
X223988095Y-32325057D02*
X224035714Y-32277438D01*
X224035714Y-32277438D02*
X224130952Y-32229819D01*
X224130952Y-32229819D02*
X224369047Y-32229819D01*
X224369047Y-32229819D02*
X224511904Y-32277438D01*
X224845238Y-32229819D02*
X225083333Y-33229819D01*
X225083333Y-33229819D02*
X225273809Y-32515533D01*
X225273809Y-32515533D02*
X225464285Y-33229819D01*
X225464285Y-33229819D02*
X225702381Y-32229819D01*
X226607142Y-33229819D02*
X226035714Y-33229819D01*
X226321428Y-33229819D02*
X226321428Y-32229819D01*
X226321428Y-32229819D02*
X226226190Y-32372676D01*
X226226190Y-32372676D02*
X226130952Y-32467914D01*
X226130952Y-32467914D02*
X226035714Y-32515533D01*
X227226190Y-32229819D02*
X227321428Y-32229819D01*
X227321428Y-32229819D02*
X227416666Y-32277438D01*
X227416666Y-32277438D02*
X227464285Y-32325057D01*
X227464285Y-32325057D02*
X227511904Y-32420295D01*
X227511904Y-32420295D02*
X227559523Y-32610771D01*
X227559523Y-32610771D02*
X227559523Y-32848866D01*
X227559523Y-32848866D02*
X227511904Y-33039342D01*
X227511904Y-33039342D02*
X227464285Y-33134580D01*
X227464285Y-33134580D02*
X227416666Y-33182200D01*
X227416666Y-33182200D02*
X227321428Y-33229819D01*
X227321428Y-33229819D02*
X227226190Y-33229819D01*
X227226190Y-33229819D02*
X227130952Y-33182200D01*
X227130952Y-33182200D02*
X227083333Y-33134580D01*
X227083333Y-33134580D02*
X227035714Y-33039342D01*
X227035714Y-33039342D02*
X226988095Y-32848866D01*
X226988095Y-32848866D02*
X226988095Y-32610771D01*
X226988095Y-32610771D02*
X227035714Y-32420295D01*
X227035714Y-32420295D02*
X227083333Y-32325057D01*
X227083333Y-32325057D02*
X227130952Y-32277438D01*
X227130952Y-32277438D02*
X227226190Y-32229819D01*
X253936667Y-96673200D02*
X254079524Y-96720819D01*
X254079524Y-96720819D02*
X254317619Y-96720819D01*
X254317619Y-96720819D02*
X254412857Y-96673200D01*
X254412857Y-96673200D02*
X254460476Y-96625580D01*
X254460476Y-96625580D02*
X254508095Y-96530342D01*
X254508095Y-96530342D02*
X254508095Y-96435104D01*
X254508095Y-96435104D02*
X254460476Y-96339866D01*
X254460476Y-96339866D02*
X254412857Y-96292247D01*
X254412857Y-96292247D02*
X254317619Y-96244628D01*
X254317619Y-96244628D02*
X254127143Y-96197009D01*
X254127143Y-96197009D02*
X254031905Y-96149390D01*
X254031905Y-96149390D02*
X253984286Y-96101771D01*
X253984286Y-96101771D02*
X253936667Y-96006533D01*
X253936667Y-96006533D02*
X253936667Y-95911295D01*
X253936667Y-95911295D02*
X253984286Y-95816057D01*
X253984286Y-95816057D02*
X254031905Y-95768438D01*
X254031905Y-95768438D02*
X254127143Y-95720819D01*
X254127143Y-95720819D02*
X254365238Y-95720819D01*
X254365238Y-95720819D02*
X254508095Y-95768438D01*
X254841429Y-95720819D02*
X255079524Y-96720819D01*
X255079524Y-96720819D02*
X255270000Y-96006533D01*
X255270000Y-96006533D02*
X255460476Y-96720819D01*
X255460476Y-96720819D02*
X255698572Y-95720819D01*
X256555714Y-95720819D02*
X256079524Y-95720819D01*
X256079524Y-95720819D02*
X256031905Y-96197009D01*
X256031905Y-96197009D02*
X256079524Y-96149390D01*
X256079524Y-96149390D02*
X256174762Y-96101771D01*
X256174762Y-96101771D02*
X256412857Y-96101771D01*
X256412857Y-96101771D02*
X256508095Y-96149390D01*
X256508095Y-96149390D02*
X256555714Y-96197009D01*
X256555714Y-96197009D02*
X256603333Y-96292247D01*
X256603333Y-96292247D02*
X256603333Y-96530342D01*
X256603333Y-96530342D02*
X256555714Y-96625580D01*
X256555714Y-96625580D02*
X256508095Y-96673200D01*
X256508095Y-96673200D02*
X256412857Y-96720819D01*
X256412857Y-96720819D02*
X256174762Y-96720819D01*
X256174762Y-96720819D02*
X256079524Y-96673200D01*
X256079524Y-96673200D02*
X256031905Y-96625580D01*
X230426667Y-75603200D02*
X230569524Y-75650819D01*
X230569524Y-75650819D02*
X230807619Y-75650819D01*
X230807619Y-75650819D02*
X230902857Y-75603200D01*
X230902857Y-75603200D02*
X230950476Y-75555580D01*
X230950476Y-75555580D02*
X230998095Y-75460342D01*
X230998095Y-75460342D02*
X230998095Y-75365104D01*
X230998095Y-75365104D02*
X230950476Y-75269866D01*
X230950476Y-75269866D02*
X230902857Y-75222247D01*
X230902857Y-75222247D02*
X230807619Y-75174628D01*
X230807619Y-75174628D02*
X230617143Y-75127009D01*
X230617143Y-75127009D02*
X230521905Y-75079390D01*
X230521905Y-75079390D02*
X230474286Y-75031771D01*
X230474286Y-75031771D02*
X230426667Y-74936533D01*
X230426667Y-74936533D02*
X230426667Y-74841295D01*
X230426667Y-74841295D02*
X230474286Y-74746057D01*
X230474286Y-74746057D02*
X230521905Y-74698438D01*
X230521905Y-74698438D02*
X230617143Y-74650819D01*
X230617143Y-74650819D02*
X230855238Y-74650819D01*
X230855238Y-74650819D02*
X230998095Y-74698438D01*
X231331429Y-74650819D02*
X231569524Y-75650819D01*
X231569524Y-75650819D02*
X231760000Y-74936533D01*
X231760000Y-74936533D02*
X231950476Y-75650819D01*
X231950476Y-75650819D02*
X232188572Y-74650819D01*
X232474286Y-74650819D02*
X233140952Y-74650819D01*
X233140952Y-74650819D02*
X232712381Y-75650819D01*
X261513334Y-44534819D02*
X261180001Y-44058628D01*
X260941906Y-44534819D02*
X260941906Y-43534819D01*
X260941906Y-43534819D02*
X261322858Y-43534819D01*
X261322858Y-43534819D02*
X261418096Y-43582438D01*
X261418096Y-43582438D02*
X261465715Y-43630057D01*
X261465715Y-43630057D02*
X261513334Y-43725295D01*
X261513334Y-43725295D02*
X261513334Y-43868152D01*
X261513334Y-43868152D02*
X261465715Y-43963390D01*
X261465715Y-43963390D02*
X261418096Y-44011009D01*
X261418096Y-44011009D02*
X261322858Y-44058628D01*
X261322858Y-44058628D02*
X260941906Y-44058628D01*
X262465715Y-44534819D02*
X261894287Y-44534819D01*
X262180001Y-44534819D02*
X262180001Y-43534819D01*
X262180001Y-43534819D02*
X262084763Y-43677676D01*
X262084763Y-43677676D02*
X261989525Y-43772914D01*
X261989525Y-43772914D02*
X261894287Y-43820533D01*
X262216190Y-45254819D02*
X261644762Y-45254819D01*
X261930476Y-45254819D02*
X261930476Y-44254819D01*
X261930476Y-44254819D02*
X261835238Y-44397676D01*
X261835238Y-44397676D02*
X261740000Y-44492914D01*
X261740000Y-44492914D02*
X261644762Y-44540533D01*
X262835238Y-44254819D02*
X262930476Y-44254819D01*
X262930476Y-44254819D02*
X263025714Y-44302438D01*
X263025714Y-44302438D02*
X263073333Y-44350057D01*
X263073333Y-44350057D02*
X263120952Y-44445295D01*
X263120952Y-44445295D02*
X263168571Y-44635771D01*
X263168571Y-44635771D02*
X263168571Y-44873866D01*
X263168571Y-44873866D02*
X263120952Y-45064342D01*
X263120952Y-45064342D02*
X263073333Y-45159580D01*
X263073333Y-45159580D02*
X263025714Y-45207200D01*
X263025714Y-45207200D02*
X262930476Y-45254819D01*
X262930476Y-45254819D02*
X262835238Y-45254819D01*
X262835238Y-45254819D02*
X262740000Y-45207200D01*
X262740000Y-45207200D02*
X262692381Y-45159580D01*
X262692381Y-45159580D02*
X262644762Y-45064342D01*
X262644762Y-45064342D02*
X262597143Y-44873866D01*
X262597143Y-44873866D02*
X262597143Y-44635771D01*
X262597143Y-44635771D02*
X262644762Y-44445295D01*
X262644762Y-44445295D02*
X262692381Y-44350057D01*
X262692381Y-44350057D02*
X262740000Y-44302438D01*
X262740000Y-44302438D02*
X262835238Y-44254819D01*
X263787619Y-44254819D02*
X263882857Y-44254819D01*
X263882857Y-44254819D02*
X263978095Y-44302438D01*
X263978095Y-44302438D02*
X264025714Y-44350057D01*
X264025714Y-44350057D02*
X264073333Y-44445295D01*
X264073333Y-44445295D02*
X264120952Y-44635771D01*
X264120952Y-44635771D02*
X264120952Y-44873866D01*
X264120952Y-44873866D02*
X264073333Y-45064342D01*
X264073333Y-45064342D02*
X264025714Y-45159580D01*
X264025714Y-45159580D02*
X263978095Y-45207200D01*
X263978095Y-45207200D02*
X263882857Y-45254819D01*
X263882857Y-45254819D02*
X263787619Y-45254819D01*
X263787619Y-45254819D02*
X263692381Y-45207200D01*
X263692381Y-45207200D02*
X263644762Y-45159580D01*
X263644762Y-45159580D02*
X263597143Y-45064342D01*
X263597143Y-45064342D02*
X263549524Y-44873866D01*
X263549524Y-44873866D02*
X263549524Y-44635771D01*
X263549524Y-44635771D02*
X263597143Y-44445295D01*
X263597143Y-44445295D02*
X263644762Y-44350057D01*
X263644762Y-44350057D02*
X263692381Y-44302438D01*
X263692381Y-44302438D02*
X263787619Y-44254819D01*
X264549524Y-44588152D02*
X264549524Y-45254819D01*
X264549524Y-44683390D02*
X264597143Y-44635771D01*
X264597143Y-44635771D02*
X264692381Y-44588152D01*
X264692381Y-44588152D02*
X264835238Y-44588152D01*
X264835238Y-44588152D02*
X264930476Y-44635771D01*
X264930476Y-44635771D02*
X264978095Y-44731009D01*
X264978095Y-44731009D02*
X264978095Y-45254819D01*
X265787619Y-44731009D02*
X265454286Y-44731009D01*
X265454286Y-45254819D02*
X265454286Y-44254819D01*
X265454286Y-44254819D02*
X265930476Y-44254819D01*
X266835238Y-45254819D02*
X266263810Y-45254819D01*
X266549524Y-45254819D02*
X266549524Y-44254819D01*
X266549524Y-44254819D02*
X266454286Y-44397676D01*
X266454286Y-44397676D02*
X266359048Y-44492914D01*
X266359048Y-44492914D02*
X266263810Y-44540533D01*
X276796667Y-75718200D02*
X276939524Y-75765819D01*
X276939524Y-75765819D02*
X277177619Y-75765819D01*
X277177619Y-75765819D02*
X277272857Y-75718200D01*
X277272857Y-75718200D02*
X277320476Y-75670580D01*
X277320476Y-75670580D02*
X277368095Y-75575342D01*
X277368095Y-75575342D02*
X277368095Y-75480104D01*
X277368095Y-75480104D02*
X277320476Y-75384866D01*
X277320476Y-75384866D02*
X277272857Y-75337247D01*
X277272857Y-75337247D02*
X277177619Y-75289628D01*
X277177619Y-75289628D02*
X276987143Y-75242009D01*
X276987143Y-75242009D02*
X276891905Y-75194390D01*
X276891905Y-75194390D02*
X276844286Y-75146771D01*
X276844286Y-75146771D02*
X276796667Y-75051533D01*
X276796667Y-75051533D02*
X276796667Y-74956295D01*
X276796667Y-74956295D02*
X276844286Y-74861057D01*
X276844286Y-74861057D02*
X276891905Y-74813438D01*
X276891905Y-74813438D02*
X276987143Y-74765819D01*
X276987143Y-74765819D02*
X277225238Y-74765819D01*
X277225238Y-74765819D02*
X277368095Y-74813438D01*
X277701429Y-74765819D02*
X277939524Y-75765819D01*
X277939524Y-75765819D02*
X278130000Y-75051533D01*
X278130000Y-75051533D02*
X278320476Y-75765819D01*
X278320476Y-75765819D02*
X278558572Y-74765819D01*
X278987143Y-75765819D02*
X279177619Y-75765819D01*
X279177619Y-75765819D02*
X279272857Y-75718200D01*
X279272857Y-75718200D02*
X279320476Y-75670580D01*
X279320476Y-75670580D02*
X279415714Y-75527723D01*
X279415714Y-75527723D02*
X279463333Y-75337247D01*
X279463333Y-75337247D02*
X279463333Y-74956295D01*
X279463333Y-74956295D02*
X279415714Y-74861057D01*
X279415714Y-74861057D02*
X279368095Y-74813438D01*
X279368095Y-74813438D02*
X279272857Y-74765819D01*
X279272857Y-74765819D02*
X279082381Y-74765819D01*
X279082381Y-74765819D02*
X278987143Y-74813438D01*
X278987143Y-74813438D02*
X278939524Y-74861057D01*
X278939524Y-74861057D02*
X278891905Y-74956295D01*
X278891905Y-74956295D02*
X278891905Y-75194390D01*
X278891905Y-75194390D02*
X278939524Y-75289628D01*
X278939524Y-75289628D02*
X278987143Y-75337247D01*
X278987143Y-75337247D02*
X279082381Y-75384866D01*
X279082381Y-75384866D02*
X279272857Y-75384866D01*
X279272857Y-75384866D02*
X279368095Y-75337247D01*
X279368095Y-75337247D02*
X279415714Y-75289628D01*
X279415714Y-75289628D02*
X279463333Y-75194390D01*
X284989819Y-104638095D02*
X283989819Y-104638095D01*
X283989819Y-104638095D02*
X283989819Y-104400000D01*
X283989819Y-104400000D02*
X284037438Y-104257143D01*
X284037438Y-104257143D02*
X284132676Y-104161905D01*
X284132676Y-104161905D02*
X284227914Y-104114286D01*
X284227914Y-104114286D02*
X284418390Y-104066667D01*
X284418390Y-104066667D02*
X284561247Y-104066667D01*
X284561247Y-104066667D02*
X284751723Y-104114286D01*
X284751723Y-104114286D02*
X284846961Y-104161905D01*
X284846961Y-104161905D02*
X284942200Y-104257143D01*
X284942200Y-104257143D02*
X284989819Y-104400000D01*
X284989819Y-104400000D02*
X284989819Y-104638095D01*
X284323152Y-103209524D02*
X284989819Y-103209524D01*
X283942200Y-103447619D02*
X284656485Y-103685714D01*
X284656485Y-103685714D02*
X284656485Y-103066667D01*
X262129819Y-62968094D02*
X261129819Y-62968094D01*
X261129819Y-62968094D02*
X261129819Y-62729999D01*
X261129819Y-62729999D02*
X261177438Y-62587142D01*
X261177438Y-62587142D02*
X261272676Y-62491904D01*
X261272676Y-62491904D02*
X261367914Y-62444285D01*
X261367914Y-62444285D02*
X261558390Y-62396666D01*
X261558390Y-62396666D02*
X261701247Y-62396666D01*
X261701247Y-62396666D02*
X261891723Y-62444285D01*
X261891723Y-62444285D02*
X261986961Y-62491904D01*
X261986961Y-62491904D02*
X262082200Y-62587142D01*
X262082200Y-62587142D02*
X262129819Y-62729999D01*
X262129819Y-62729999D02*
X262129819Y-62968094D01*
X261225057Y-62015713D02*
X261177438Y-61968094D01*
X261177438Y-61968094D02*
X261129819Y-61872856D01*
X261129819Y-61872856D02*
X261129819Y-61634761D01*
X261129819Y-61634761D02*
X261177438Y-61539523D01*
X261177438Y-61539523D02*
X261225057Y-61491904D01*
X261225057Y-61491904D02*
X261320295Y-61444285D01*
X261320295Y-61444285D02*
X261415533Y-61444285D01*
X261415533Y-61444285D02*
X261558390Y-61491904D01*
X261558390Y-61491904D02*
X262129819Y-62063332D01*
X262129819Y-62063332D02*
X262129819Y-61444285D01*
X264133333Y-44099580D02*
X264085714Y-44147200D01*
X264085714Y-44147200D02*
X263942857Y-44194819D01*
X263942857Y-44194819D02*
X263847619Y-44194819D01*
X263847619Y-44194819D02*
X263704762Y-44147200D01*
X263704762Y-44147200D02*
X263609524Y-44051961D01*
X263609524Y-44051961D02*
X263561905Y-43956723D01*
X263561905Y-43956723D02*
X263514286Y-43766247D01*
X263514286Y-43766247D02*
X263514286Y-43623390D01*
X263514286Y-43623390D02*
X263561905Y-43432914D01*
X263561905Y-43432914D02*
X263609524Y-43337676D01*
X263609524Y-43337676D02*
X263704762Y-43242438D01*
X263704762Y-43242438D02*
X263847619Y-43194819D01*
X263847619Y-43194819D02*
X263942857Y-43194819D01*
X263942857Y-43194819D02*
X264085714Y-43242438D01*
X264085714Y-43242438D02*
X264133333Y-43290057D01*
X265038095Y-43194819D02*
X264561905Y-43194819D01*
X264561905Y-43194819D02*
X264514286Y-43671009D01*
X264514286Y-43671009D02*
X264561905Y-43623390D01*
X264561905Y-43623390D02*
X264657143Y-43575771D01*
X264657143Y-43575771D02*
X264895238Y-43575771D01*
X264895238Y-43575771D02*
X264990476Y-43623390D01*
X264990476Y-43623390D02*
X265038095Y-43671009D01*
X265038095Y-43671009D02*
X265085714Y-43766247D01*
X265085714Y-43766247D02*
X265085714Y-44004342D01*
X265085714Y-44004342D02*
X265038095Y-44099580D01*
X265038095Y-44099580D02*
X264990476Y-44147200D01*
X264990476Y-44147200D02*
X264895238Y-44194819D01*
X264895238Y-44194819D02*
X264657143Y-44194819D01*
X264657143Y-44194819D02*
X264561905Y-44147200D01*
X264561905Y-44147200D02*
X264514286Y-44099580D01*
X262129819Y-83288094D02*
X261129819Y-83288094D01*
X261129819Y-83288094D02*
X261129819Y-83049999D01*
X261129819Y-83049999D02*
X261177438Y-82907142D01*
X261177438Y-82907142D02*
X261272676Y-82811904D01*
X261272676Y-82811904D02*
X261367914Y-82764285D01*
X261367914Y-82764285D02*
X261558390Y-82716666D01*
X261558390Y-82716666D02*
X261701247Y-82716666D01*
X261701247Y-82716666D02*
X261891723Y-82764285D01*
X261891723Y-82764285D02*
X261986961Y-82811904D01*
X261986961Y-82811904D02*
X262082200Y-82907142D01*
X262082200Y-82907142D02*
X262129819Y-83049999D01*
X262129819Y-83049999D02*
X262129819Y-83288094D01*
X261558390Y-82145237D02*
X261510771Y-82240475D01*
X261510771Y-82240475D02*
X261463152Y-82288094D01*
X261463152Y-82288094D02*
X261367914Y-82335713D01*
X261367914Y-82335713D02*
X261320295Y-82335713D01*
X261320295Y-82335713D02*
X261225057Y-82288094D01*
X261225057Y-82288094D02*
X261177438Y-82240475D01*
X261177438Y-82240475D02*
X261129819Y-82145237D01*
X261129819Y-82145237D02*
X261129819Y-81954761D01*
X261129819Y-81954761D02*
X261177438Y-81859523D01*
X261177438Y-81859523D02*
X261225057Y-81811904D01*
X261225057Y-81811904D02*
X261320295Y-81764285D01*
X261320295Y-81764285D02*
X261367914Y-81764285D01*
X261367914Y-81764285D02*
X261463152Y-81811904D01*
X261463152Y-81811904D02*
X261510771Y-81859523D01*
X261510771Y-81859523D02*
X261558390Y-81954761D01*
X261558390Y-81954761D02*
X261558390Y-82145237D01*
X261558390Y-82145237D02*
X261606009Y-82240475D01*
X261606009Y-82240475D02*
X261653628Y-82288094D01*
X261653628Y-82288094D02*
X261748866Y-82335713D01*
X261748866Y-82335713D02*
X261939342Y-82335713D01*
X261939342Y-82335713D02*
X262034580Y-82288094D01*
X262034580Y-82288094D02*
X262082200Y-82240475D01*
X262082200Y-82240475D02*
X262129819Y-82145237D01*
X262129819Y-82145237D02*
X262129819Y-81954761D01*
X262129819Y-81954761D02*
X262082200Y-81859523D01*
X262082200Y-81859523D02*
X262034580Y-81811904D01*
X262034580Y-81811904D02*
X261939342Y-81764285D01*
X261939342Y-81764285D02*
X261748866Y-81764285D01*
X261748866Y-81764285D02*
X261653628Y-81811904D01*
X261653628Y-81811904D02*
X261606009Y-81859523D01*
X261606009Y-81859523D02*
X261558390Y-81954761D01*
X230586667Y-54153200D02*
X230729524Y-54200819D01*
X230729524Y-54200819D02*
X230967619Y-54200819D01*
X230967619Y-54200819D02*
X231062857Y-54153200D01*
X231062857Y-54153200D02*
X231110476Y-54105580D01*
X231110476Y-54105580D02*
X231158095Y-54010342D01*
X231158095Y-54010342D02*
X231158095Y-53915104D01*
X231158095Y-53915104D02*
X231110476Y-53819866D01*
X231110476Y-53819866D02*
X231062857Y-53772247D01*
X231062857Y-53772247D02*
X230967619Y-53724628D01*
X230967619Y-53724628D02*
X230777143Y-53677009D01*
X230777143Y-53677009D02*
X230681905Y-53629390D01*
X230681905Y-53629390D02*
X230634286Y-53581771D01*
X230634286Y-53581771D02*
X230586667Y-53486533D01*
X230586667Y-53486533D02*
X230586667Y-53391295D01*
X230586667Y-53391295D02*
X230634286Y-53296057D01*
X230634286Y-53296057D02*
X230681905Y-53248438D01*
X230681905Y-53248438D02*
X230777143Y-53200819D01*
X230777143Y-53200819D02*
X231015238Y-53200819D01*
X231015238Y-53200819D02*
X231158095Y-53248438D01*
X231491429Y-53200819D02*
X231729524Y-54200819D01*
X231729524Y-54200819D02*
X231920000Y-53486533D01*
X231920000Y-53486533D02*
X232110476Y-54200819D01*
X232110476Y-54200819D02*
X232348572Y-53200819D01*
X233253333Y-54200819D02*
X232681905Y-54200819D01*
X232967619Y-54200819D02*
X232967619Y-53200819D01*
X232967619Y-53200819D02*
X232872381Y-53343676D01*
X232872381Y-53343676D02*
X232777143Y-53438914D01*
X232777143Y-53438914D02*
X232681905Y-53486533D01*
X253936667Y-75603200D02*
X254079524Y-75650819D01*
X254079524Y-75650819D02*
X254317619Y-75650819D01*
X254317619Y-75650819D02*
X254412857Y-75603200D01*
X254412857Y-75603200D02*
X254460476Y-75555580D01*
X254460476Y-75555580D02*
X254508095Y-75460342D01*
X254508095Y-75460342D02*
X254508095Y-75365104D01*
X254508095Y-75365104D02*
X254460476Y-75269866D01*
X254460476Y-75269866D02*
X254412857Y-75222247D01*
X254412857Y-75222247D02*
X254317619Y-75174628D01*
X254317619Y-75174628D02*
X254127143Y-75127009D01*
X254127143Y-75127009D02*
X254031905Y-75079390D01*
X254031905Y-75079390D02*
X253984286Y-75031771D01*
X253984286Y-75031771D02*
X253936667Y-74936533D01*
X253936667Y-74936533D02*
X253936667Y-74841295D01*
X253936667Y-74841295D02*
X253984286Y-74746057D01*
X253984286Y-74746057D02*
X254031905Y-74698438D01*
X254031905Y-74698438D02*
X254127143Y-74650819D01*
X254127143Y-74650819D02*
X254365238Y-74650819D01*
X254365238Y-74650819D02*
X254508095Y-74698438D01*
X254841429Y-74650819D02*
X255079524Y-75650819D01*
X255079524Y-75650819D02*
X255270000Y-74936533D01*
X255270000Y-74936533D02*
X255460476Y-75650819D01*
X255460476Y-75650819D02*
X255698572Y-74650819D01*
X256222381Y-75079390D02*
X256127143Y-75031771D01*
X256127143Y-75031771D02*
X256079524Y-74984152D01*
X256079524Y-74984152D02*
X256031905Y-74888914D01*
X256031905Y-74888914D02*
X256031905Y-74841295D01*
X256031905Y-74841295D02*
X256079524Y-74746057D01*
X256079524Y-74746057D02*
X256127143Y-74698438D01*
X256127143Y-74698438D02*
X256222381Y-74650819D01*
X256222381Y-74650819D02*
X256412857Y-74650819D01*
X256412857Y-74650819D02*
X256508095Y-74698438D01*
X256508095Y-74698438D02*
X256555714Y-74746057D01*
X256555714Y-74746057D02*
X256603333Y-74841295D01*
X256603333Y-74841295D02*
X256603333Y-74888914D01*
X256603333Y-74888914D02*
X256555714Y-74984152D01*
X256555714Y-74984152D02*
X256508095Y-75031771D01*
X256508095Y-75031771D02*
X256412857Y-75079390D01*
X256412857Y-75079390D02*
X256222381Y-75079390D01*
X256222381Y-75079390D02*
X256127143Y-75127009D01*
X256127143Y-75127009D02*
X256079524Y-75174628D01*
X256079524Y-75174628D02*
X256031905Y-75269866D01*
X256031905Y-75269866D02*
X256031905Y-75460342D01*
X256031905Y-75460342D02*
X256079524Y-75555580D01*
X256079524Y-75555580D02*
X256127143Y-75603200D01*
X256127143Y-75603200D02*
X256222381Y-75650819D01*
X256222381Y-75650819D02*
X256412857Y-75650819D01*
X256412857Y-75650819D02*
X256508095Y-75603200D01*
X256508095Y-75603200D02*
X256555714Y-75555580D01*
X256555714Y-75555580D02*
X256603333Y-75460342D01*
X256603333Y-75460342D02*
X256603333Y-75269866D01*
X256603333Y-75269866D02*
X256555714Y-75174628D01*
X256555714Y-75174628D02*
X256508095Y-75127009D01*
X256508095Y-75127009D02*
X256412857Y-75079390D01*
X262129819Y-104243094D02*
X261129819Y-104243094D01*
X261129819Y-104243094D02*
X261129819Y-104004999D01*
X261129819Y-104004999D02*
X261177438Y-103862142D01*
X261177438Y-103862142D02*
X261272676Y-103766904D01*
X261272676Y-103766904D02*
X261367914Y-103719285D01*
X261367914Y-103719285D02*
X261558390Y-103671666D01*
X261558390Y-103671666D02*
X261701247Y-103671666D01*
X261701247Y-103671666D02*
X261891723Y-103719285D01*
X261891723Y-103719285D02*
X261986961Y-103766904D01*
X261986961Y-103766904D02*
X262082200Y-103862142D01*
X262082200Y-103862142D02*
X262129819Y-104004999D01*
X262129819Y-104004999D02*
X262129819Y-104243094D01*
X261129819Y-102814523D02*
X261129819Y-103004999D01*
X261129819Y-103004999D02*
X261177438Y-103100237D01*
X261177438Y-103100237D02*
X261225057Y-103147856D01*
X261225057Y-103147856D02*
X261367914Y-103243094D01*
X261367914Y-103243094D02*
X261558390Y-103290713D01*
X261558390Y-103290713D02*
X261939342Y-103290713D01*
X261939342Y-103290713D02*
X262034580Y-103243094D01*
X262034580Y-103243094D02*
X262082200Y-103195475D01*
X262082200Y-103195475D02*
X262129819Y-103100237D01*
X262129819Y-103100237D02*
X262129819Y-102909761D01*
X262129819Y-102909761D02*
X262082200Y-102814523D01*
X262082200Y-102814523D02*
X262034580Y-102766904D01*
X262034580Y-102766904D02*
X261939342Y-102719285D01*
X261939342Y-102719285D02*
X261701247Y-102719285D01*
X261701247Y-102719285D02*
X261606009Y-102766904D01*
X261606009Y-102766904D02*
X261558390Y-102814523D01*
X261558390Y-102814523D02*
X261510771Y-102909761D01*
X261510771Y-102909761D02*
X261510771Y-103100237D01*
X261510771Y-103100237D02*
X261558390Y-103195475D01*
X261558390Y-103195475D02*
X261606009Y-103243094D01*
X261606009Y-103243094D02*
X261701247Y-103290713D01*
X272866317Y-62394875D02*
X272866317Y-62462219D01*
X272866317Y-62462219D02*
X272798973Y-62596906D01*
X272798973Y-62596906D02*
X272731630Y-62664249D01*
X272731630Y-62664249D02*
X272596943Y-62731593D01*
X272596943Y-62731593D02*
X272462256Y-62731593D01*
X272462256Y-62731593D02*
X272361241Y-62697921D01*
X272361241Y-62697921D02*
X272192882Y-62596906D01*
X272192882Y-62596906D02*
X272091867Y-62495891D01*
X272091867Y-62495891D02*
X271990851Y-62327532D01*
X271990851Y-62327532D02*
X271957180Y-62226517D01*
X271957180Y-62226517D02*
X271957180Y-62091830D01*
X271957180Y-62091830D02*
X272024523Y-61957143D01*
X272024523Y-61957143D02*
X272091867Y-61889799D01*
X272091867Y-61889799D02*
X272226554Y-61822456D01*
X272226554Y-61822456D02*
X272293897Y-61822456D01*
X273068347Y-61384723D02*
X273539752Y-61856127D01*
X272630615Y-61283708D02*
X272967332Y-61957143D01*
X272967332Y-61957143D02*
X273405065Y-61519410D01*
X249567643Y-46196655D02*
X249500299Y-46196655D01*
X249500299Y-46196655D02*
X249365612Y-46129311D01*
X249365612Y-46129311D02*
X249298269Y-46061968D01*
X249298269Y-46061968D02*
X249230925Y-45927281D01*
X249230925Y-45927281D02*
X249230925Y-45792594D01*
X249230925Y-45792594D02*
X249264597Y-45691579D01*
X249264597Y-45691579D02*
X249365612Y-45523220D01*
X249365612Y-45523220D02*
X249466627Y-45422205D01*
X249466627Y-45422205D02*
X249634986Y-45321189D01*
X249634986Y-45321189D02*
X249736001Y-45287518D01*
X249736001Y-45287518D02*
X249870688Y-45287518D01*
X249870688Y-45287518D02*
X250005375Y-45354861D01*
X250005375Y-45354861D02*
X250072719Y-45422205D01*
X250072719Y-45422205D02*
X250140062Y-45556892D01*
X250140062Y-45556892D02*
X250140062Y-45624235D01*
X250443108Y-45792594D02*
X250880841Y-46230327D01*
X250880841Y-46230327D02*
X250375765Y-46263998D01*
X250375765Y-46263998D02*
X250476780Y-46365014D01*
X250476780Y-46365014D02*
X250510452Y-46466029D01*
X250510452Y-46466029D02*
X250510452Y-46533372D01*
X250510452Y-46533372D02*
X250476780Y-46634388D01*
X250476780Y-46634388D02*
X250308421Y-46802746D01*
X250308421Y-46802746D02*
X250207406Y-46836418D01*
X250207406Y-46836418D02*
X250140062Y-46836418D01*
X250140062Y-46836418D02*
X250039047Y-46802746D01*
X250039047Y-46802746D02*
X249837017Y-46600716D01*
X249837017Y-46600716D02*
X249803345Y-46499701D01*
X249803345Y-46499701D02*
X249803345Y-46432357D01*
X238634819Y-84798093D02*
X237634819Y-84798093D01*
X237634819Y-84798093D02*
X237634819Y-84559998D01*
X237634819Y-84559998D02*
X237682438Y-84417141D01*
X237682438Y-84417141D02*
X237777676Y-84321903D01*
X237777676Y-84321903D02*
X237872914Y-84274284D01*
X237872914Y-84274284D02*
X238063390Y-84226665D01*
X238063390Y-84226665D02*
X238206247Y-84226665D01*
X238206247Y-84226665D02*
X238396723Y-84274284D01*
X238396723Y-84274284D02*
X238491961Y-84321903D01*
X238491961Y-84321903D02*
X238587200Y-84417141D01*
X238587200Y-84417141D02*
X238634819Y-84559998D01*
X238634819Y-84559998D02*
X238634819Y-84798093D01*
X238634819Y-83750474D02*
X238634819Y-83559998D01*
X238634819Y-83559998D02*
X238587200Y-83464760D01*
X238587200Y-83464760D02*
X238539580Y-83417141D01*
X238539580Y-83417141D02*
X238396723Y-83321903D01*
X238396723Y-83321903D02*
X238206247Y-83274284D01*
X238206247Y-83274284D02*
X237825295Y-83274284D01*
X237825295Y-83274284D02*
X237730057Y-83321903D01*
X237730057Y-83321903D02*
X237682438Y-83369522D01*
X237682438Y-83369522D02*
X237634819Y-83464760D01*
X237634819Y-83464760D02*
X237634819Y-83655236D01*
X237634819Y-83655236D02*
X237682438Y-83750474D01*
X237682438Y-83750474D02*
X237730057Y-83798093D01*
X237730057Y-83798093D02*
X237825295Y-83845712D01*
X237825295Y-83845712D02*
X238063390Y-83845712D01*
X238063390Y-83845712D02*
X238158628Y-83798093D01*
X238158628Y-83798093D02*
X238206247Y-83750474D01*
X238206247Y-83750474D02*
X238253866Y-83655236D01*
X238253866Y-83655236D02*
X238253866Y-83464760D01*
X238253866Y-83464760D02*
X238206247Y-83369522D01*
X238206247Y-83369522D02*
X238158628Y-83321903D01*
X238158628Y-83321903D02*
X238063390Y-83274284D01*
X284989819Y-62968094D02*
X283989819Y-62968094D01*
X283989819Y-62968094D02*
X283989819Y-62729999D01*
X283989819Y-62729999D02*
X284037438Y-62587142D01*
X284037438Y-62587142D02*
X284132676Y-62491904D01*
X284132676Y-62491904D02*
X284227914Y-62444285D01*
X284227914Y-62444285D02*
X284418390Y-62396666D01*
X284418390Y-62396666D02*
X284561247Y-62396666D01*
X284561247Y-62396666D02*
X284751723Y-62444285D01*
X284751723Y-62444285D02*
X284846961Y-62491904D01*
X284846961Y-62491904D02*
X284942200Y-62587142D01*
X284942200Y-62587142D02*
X284989819Y-62729999D01*
X284989819Y-62729999D02*
X284989819Y-62968094D01*
X283989819Y-62063332D02*
X283989819Y-61444285D01*
X283989819Y-61444285D02*
X284370771Y-61777618D01*
X284370771Y-61777618D02*
X284370771Y-61634761D01*
X284370771Y-61634761D02*
X284418390Y-61539523D01*
X284418390Y-61539523D02*
X284466009Y-61491904D01*
X284466009Y-61491904D02*
X284561247Y-61444285D01*
X284561247Y-61444285D02*
X284799342Y-61444285D01*
X284799342Y-61444285D02*
X284894580Y-61491904D01*
X284894580Y-61491904D02*
X284942200Y-61539523D01*
X284942200Y-61539523D02*
X284989819Y-61634761D01*
X284989819Y-61634761D02*
X284989819Y-61920475D01*
X284989819Y-61920475D02*
X284942200Y-62015713D01*
X284942200Y-62015713D02*
X284894580Y-62063332D01*
X276966667Y-54013200D02*
X277109524Y-54060819D01*
X277109524Y-54060819D02*
X277347619Y-54060819D01*
X277347619Y-54060819D02*
X277442857Y-54013200D01*
X277442857Y-54013200D02*
X277490476Y-53965580D01*
X277490476Y-53965580D02*
X277538095Y-53870342D01*
X277538095Y-53870342D02*
X277538095Y-53775104D01*
X277538095Y-53775104D02*
X277490476Y-53679866D01*
X277490476Y-53679866D02*
X277442857Y-53632247D01*
X277442857Y-53632247D02*
X277347619Y-53584628D01*
X277347619Y-53584628D02*
X277157143Y-53537009D01*
X277157143Y-53537009D02*
X277061905Y-53489390D01*
X277061905Y-53489390D02*
X277014286Y-53441771D01*
X277014286Y-53441771D02*
X276966667Y-53346533D01*
X276966667Y-53346533D02*
X276966667Y-53251295D01*
X276966667Y-53251295D02*
X277014286Y-53156057D01*
X277014286Y-53156057D02*
X277061905Y-53108438D01*
X277061905Y-53108438D02*
X277157143Y-53060819D01*
X277157143Y-53060819D02*
X277395238Y-53060819D01*
X277395238Y-53060819D02*
X277538095Y-53108438D01*
X277871429Y-53060819D02*
X278109524Y-54060819D01*
X278109524Y-54060819D02*
X278300000Y-53346533D01*
X278300000Y-53346533D02*
X278490476Y-54060819D01*
X278490476Y-54060819D02*
X278728572Y-53060819D01*
X279014286Y-53060819D02*
X279633333Y-53060819D01*
X279633333Y-53060819D02*
X279300000Y-53441771D01*
X279300000Y-53441771D02*
X279442857Y-53441771D01*
X279442857Y-53441771D02*
X279538095Y-53489390D01*
X279538095Y-53489390D02*
X279585714Y-53537009D01*
X279585714Y-53537009D02*
X279633333Y-53632247D01*
X279633333Y-53632247D02*
X279633333Y-53870342D01*
X279633333Y-53870342D02*
X279585714Y-53965580D01*
X279585714Y-53965580D02*
X279538095Y-54013200D01*
X279538095Y-54013200D02*
X279442857Y-54060819D01*
X279442857Y-54060819D02*
X279157143Y-54060819D01*
X279157143Y-54060819D02*
X279061905Y-54013200D01*
X279061905Y-54013200D02*
X279014286Y-53965580D01*
X230560714Y-90179819D02*
X230560714Y-89179819D01*
X230560714Y-89179819D02*
X230798809Y-89179819D01*
X230798809Y-89179819D02*
X230941666Y-89227438D01*
X230941666Y-89227438D02*
X231036904Y-89322676D01*
X231036904Y-89322676D02*
X231084523Y-89417914D01*
X231084523Y-89417914D02*
X231132142Y-89608390D01*
X231132142Y-89608390D02*
X231132142Y-89751247D01*
X231132142Y-89751247D02*
X231084523Y-89941723D01*
X231084523Y-89941723D02*
X231036904Y-90036961D01*
X231036904Y-90036961D02*
X230941666Y-90132200D01*
X230941666Y-90132200D02*
X230798809Y-90179819D01*
X230798809Y-90179819D02*
X230560714Y-90179819D01*
X232084523Y-90179819D02*
X231513095Y-90179819D01*
X231798809Y-90179819D02*
X231798809Y-89179819D01*
X231798809Y-89179819D02*
X231703571Y-89322676D01*
X231703571Y-89322676D02*
X231608333Y-89417914D01*
X231608333Y-89417914D02*
X231513095Y-89465533D01*
X232417857Y-89179819D02*
X233036904Y-89179819D01*
X233036904Y-89179819D02*
X232703571Y-89560771D01*
X232703571Y-89560771D02*
X232846428Y-89560771D01*
X232846428Y-89560771D02*
X232941666Y-89608390D01*
X232941666Y-89608390D02*
X232989285Y-89656009D01*
X232989285Y-89656009D02*
X233036904Y-89751247D01*
X233036904Y-89751247D02*
X233036904Y-89989342D01*
X233036904Y-89989342D02*
X232989285Y-90084580D01*
X232989285Y-90084580D02*
X232941666Y-90132200D01*
X232941666Y-90132200D02*
X232846428Y-90179819D01*
X232846428Y-90179819D02*
X232560714Y-90179819D01*
X232560714Y-90179819D02*
X232465476Y-90132200D01*
X232465476Y-90132200D02*
X232417857Y-90084580D01*
X228803571Y-91962295D02*
X228346428Y-91962295D01*
X228575000Y-91962295D02*
X228575000Y-91162295D01*
X228575000Y-91162295D02*
X228498809Y-91276580D01*
X228498809Y-91276580D02*
X228422619Y-91352771D01*
X228422619Y-91352771D02*
X228346428Y-91390866D01*
X276796667Y-96673200D02*
X276939524Y-96720819D01*
X276939524Y-96720819D02*
X277177619Y-96720819D01*
X277177619Y-96720819D02*
X277272857Y-96673200D01*
X277272857Y-96673200D02*
X277320476Y-96625580D01*
X277320476Y-96625580D02*
X277368095Y-96530342D01*
X277368095Y-96530342D02*
X277368095Y-96435104D01*
X277368095Y-96435104D02*
X277320476Y-96339866D01*
X277320476Y-96339866D02*
X277272857Y-96292247D01*
X277272857Y-96292247D02*
X277177619Y-96244628D01*
X277177619Y-96244628D02*
X276987143Y-96197009D01*
X276987143Y-96197009D02*
X276891905Y-96149390D01*
X276891905Y-96149390D02*
X276844286Y-96101771D01*
X276844286Y-96101771D02*
X276796667Y-96006533D01*
X276796667Y-96006533D02*
X276796667Y-95911295D01*
X276796667Y-95911295D02*
X276844286Y-95816057D01*
X276844286Y-95816057D02*
X276891905Y-95768438D01*
X276891905Y-95768438D02*
X276987143Y-95720819D01*
X276987143Y-95720819D02*
X277225238Y-95720819D01*
X277225238Y-95720819D02*
X277368095Y-95768438D01*
X277701429Y-95720819D02*
X277939524Y-96720819D01*
X277939524Y-96720819D02*
X278130000Y-96006533D01*
X278130000Y-96006533D02*
X278320476Y-96720819D01*
X278320476Y-96720819D02*
X278558572Y-95720819D01*
X279368095Y-95720819D02*
X279177619Y-95720819D01*
X279177619Y-95720819D02*
X279082381Y-95768438D01*
X279082381Y-95768438D02*
X279034762Y-95816057D01*
X279034762Y-95816057D02*
X278939524Y-95958914D01*
X278939524Y-95958914D02*
X278891905Y-96149390D01*
X278891905Y-96149390D02*
X278891905Y-96530342D01*
X278891905Y-96530342D02*
X278939524Y-96625580D01*
X278939524Y-96625580D02*
X278987143Y-96673200D01*
X278987143Y-96673200D02*
X279082381Y-96720819D01*
X279082381Y-96720819D02*
X279272857Y-96720819D01*
X279272857Y-96720819D02*
X279368095Y-96673200D01*
X279368095Y-96673200D02*
X279415714Y-96625580D01*
X279415714Y-96625580D02*
X279463333Y-96530342D01*
X279463333Y-96530342D02*
X279463333Y-96292247D01*
X279463333Y-96292247D02*
X279415714Y-96197009D01*
X279415714Y-96197009D02*
X279368095Y-96149390D01*
X279368095Y-96149390D02*
X279272857Y-96101771D01*
X279272857Y-96101771D02*
X279082381Y-96101771D01*
X279082381Y-96101771D02*
X278987143Y-96149390D01*
X278987143Y-96149390D02*
X278939524Y-96197009D01*
X278939524Y-96197009D02*
X278891905Y-96292247D01*
X277068114Y-68570819D02*
X277068114Y-67570819D01*
X277068114Y-67570819D02*
X277306209Y-67570819D01*
X277306209Y-67570819D02*
X277449066Y-67618438D01*
X277449066Y-67618438D02*
X277544304Y-67713676D01*
X277544304Y-67713676D02*
X277591923Y-67808914D01*
X277591923Y-67808914D02*
X277639542Y-67999390D01*
X277639542Y-67999390D02*
X277639542Y-68142247D01*
X277639542Y-68142247D02*
X277591923Y-68332723D01*
X277591923Y-68332723D02*
X277544304Y-68427961D01*
X277544304Y-68427961D02*
X277449066Y-68523200D01*
X277449066Y-68523200D02*
X277306209Y-68570819D01*
X277306209Y-68570819D02*
X277068114Y-68570819D01*
X278591923Y-68570819D02*
X278020495Y-68570819D01*
X278306209Y-68570819D02*
X278306209Y-67570819D01*
X278306209Y-67570819D02*
X278210971Y-67713676D01*
X278210971Y-67713676D02*
X278115733Y-67808914D01*
X278115733Y-67808914D02*
X278020495Y-67856533D01*
X278972876Y-67666057D02*
X279020495Y-67618438D01*
X279020495Y-67618438D02*
X279115733Y-67570819D01*
X279115733Y-67570819D02*
X279353828Y-67570819D01*
X279353828Y-67570819D02*
X279449066Y-67618438D01*
X279449066Y-67618438D02*
X279496685Y-67666057D01*
X279496685Y-67666057D02*
X279544304Y-67761295D01*
X279544304Y-67761295D02*
X279544304Y-67856533D01*
X279544304Y-67856533D02*
X279496685Y-67999390D01*
X279496685Y-67999390D02*
X278925257Y-68570819D01*
X278925257Y-68570819D02*
X279544304Y-68570819D01*
X275310971Y-70353295D02*
X274853828Y-70353295D01*
X275082400Y-70353295D02*
X275082400Y-69553295D01*
X275082400Y-69553295D02*
X275006209Y-69667580D01*
X275006209Y-69667580D02*
X274930019Y-69743771D01*
X274930019Y-69743771D02*
X274853828Y-69781866D01*
X248173333Y-46449580D02*
X248125714Y-46497200D01*
X248125714Y-46497200D02*
X247982857Y-46544819D01*
X247982857Y-46544819D02*
X247887619Y-46544819D01*
X247887619Y-46544819D02*
X247744762Y-46497200D01*
X247744762Y-46497200D02*
X247649524Y-46401961D01*
X247649524Y-46401961D02*
X247601905Y-46306723D01*
X247601905Y-46306723D02*
X247554286Y-46116247D01*
X247554286Y-46116247D02*
X247554286Y-45973390D01*
X247554286Y-45973390D02*
X247601905Y-45782914D01*
X247601905Y-45782914D02*
X247649524Y-45687676D01*
X247649524Y-45687676D02*
X247744762Y-45592438D01*
X247744762Y-45592438D02*
X247887619Y-45544819D01*
X247887619Y-45544819D02*
X247982857Y-45544819D01*
X247982857Y-45544819D02*
X248125714Y-45592438D01*
X248125714Y-45592438D02*
X248173333Y-45640057D01*
X249125714Y-46544819D02*
X248554286Y-46544819D01*
X248840000Y-46544819D02*
X248840000Y-45544819D01*
X248840000Y-45544819D02*
X248744762Y-45687676D01*
X248744762Y-45687676D02*
X248649524Y-45782914D01*
X248649524Y-45782914D02*
X248554286Y-45830533D01*
X277685714Y-112079819D02*
X277685714Y-111079819D01*
X277685714Y-111079819D02*
X277923809Y-111079819D01*
X277923809Y-111079819D02*
X278066666Y-111127438D01*
X278066666Y-111127438D02*
X278161904Y-111222676D01*
X278161904Y-111222676D02*
X278209523Y-111317914D01*
X278209523Y-111317914D02*
X278257142Y-111508390D01*
X278257142Y-111508390D02*
X278257142Y-111651247D01*
X278257142Y-111651247D02*
X278209523Y-111841723D01*
X278209523Y-111841723D02*
X278161904Y-111936961D01*
X278161904Y-111936961D02*
X278066666Y-112032200D01*
X278066666Y-112032200D02*
X277923809Y-112079819D01*
X277923809Y-112079819D02*
X277685714Y-112079819D01*
X279209523Y-112079819D02*
X278638095Y-112079819D01*
X278923809Y-112079819D02*
X278923809Y-111079819D01*
X278923809Y-111079819D02*
X278828571Y-111222676D01*
X278828571Y-111222676D02*
X278733333Y-111317914D01*
X278733333Y-111317914D02*
X278638095Y-111365533D01*
X279780952Y-111508390D02*
X279685714Y-111460771D01*
X279685714Y-111460771D02*
X279638095Y-111413152D01*
X279638095Y-111413152D02*
X279590476Y-111317914D01*
X279590476Y-111317914D02*
X279590476Y-111270295D01*
X279590476Y-111270295D02*
X279638095Y-111175057D01*
X279638095Y-111175057D02*
X279685714Y-111127438D01*
X279685714Y-111127438D02*
X279780952Y-111079819D01*
X279780952Y-111079819D02*
X279971428Y-111079819D01*
X279971428Y-111079819D02*
X280066666Y-111127438D01*
X280066666Y-111127438D02*
X280114285Y-111175057D01*
X280114285Y-111175057D02*
X280161904Y-111270295D01*
X280161904Y-111270295D02*
X280161904Y-111317914D01*
X280161904Y-111317914D02*
X280114285Y-111413152D01*
X280114285Y-111413152D02*
X280066666Y-111460771D01*
X280066666Y-111460771D02*
X279971428Y-111508390D01*
X279971428Y-111508390D02*
X279780952Y-111508390D01*
X279780952Y-111508390D02*
X279685714Y-111556009D01*
X279685714Y-111556009D02*
X279638095Y-111603628D01*
X279638095Y-111603628D02*
X279590476Y-111698866D01*
X279590476Y-111698866D02*
X279590476Y-111889342D01*
X279590476Y-111889342D02*
X279638095Y-111984580D01*
X279638095Y-111984580D02*
X279685714Y-112032200D01*
X279685714Y-112032200D02*
X279780952Y-112079819D01*
X279780952Y-112079819D02*
X279971428Y-112079819D01*
X279971428Y-112079819D02*
X280066666Y-112032200D01*
X280066666Y-112032200D02*
X280114285Y-111984580D01*
X280114285Y-111984580D02*
X280161904Y-111889342D01*
X280161904Y-111889342D02*
X280161904Y-111698866D01*
X280161904Y-111698866D02*
X280114285Y-111603628D01*
X280114285Y-111603628D02*
X280066666Y-111556009D01*
X280066666Y-111556009D02*
X279971428Y-111508390D01*
X275928571Y-113862295D02*
X275471428Y-113862295D01*
X275700000Y-113862295D02*
X275700000Y-113062295D01*
X275700000Y-113062295D02*
X275623809Y-113176580D01*
X275623809Y-113176580D02*
X275547619Y-113252771D01*
X275547619Y-113252771D02*
X275471428Y-113290866D01*
X253135714Y-45499820D02*
X253135714Y-44499820D01*
X253135714Y-44499820D02*
X253373809Y-44499820D01*
X253373809Y-44499820D02*
X253516666Y-44547439D01*
X253516666Y-44547439D02*
X253611904Y-44642677D01*
X253611904Y-44642677D02*
X253659523Y-44737915D01*
X253659523Y-44737915D02*
X253707142Y-44928391D01*
X253707142Y-44928391D02*
X253707142Y-45071248D01*
X253707142Y-45071248D02*
X253659523Y-45261724D01*
X253659523Y-45261724D02*
X253611904Y-45356962D01*
X253611904Y-45356962D02*
X253516666Y-45452201D01*
X253516666Y-45452201D02*
X253373809Y-45499820D01*
X253373809Y-45499820D02*
X253135714Y-45499820D01*
X254088095Y-45452201D02*
X254230952Y-45499820D01*
X254230952Y-45499820D02*
X254469047Y-45499820D01*
X254469047Y-45499820D02*
X254564285Y-45452201D01*
X254564285Y-45452201D02*
X254611904Y-45404581D01*
X254611904Y-45404581D02*
X254659523Y-45309343D01*
X254659523Y-45309343D02*
X254659523Y-45214105D01*
X254659523Y-45214105D02*
X254611904Y-45118867D01*
X254611904Y-45118867D02*
X254564285Y-45071248D01*
X254564285Y-45071248D02*
X254469047Y-45023629D01*
X254469047Y-45023629D02*
X254278571Y-44976010D01*
X254278571Y-44976010D02*
X254183333Y-44928391D01*
X254183333Y-44928391D02*
X254135714Y-44880772D01*
X254135714Y-44880772D02*
X254088095Y-44785534D01*
X254088095Y-44785534D02*
X254088095Y-44690296D01*
X254088095Y-44690296D02*
X254135714Y-44595058D01*
X254135714Y-44595058D02*
X254183333Y-44547439D01*
X254183333Y-44547439D02*
X254278571Y-44499820D01*
X254278571Y-44499820D02*
X254516666Y-44499820D01*
X254516666Y-44499820D02*
X254659523Y-44547439D01*
X255611904Y-45499820D02*
X255040476Y-45499820D01*
X255326190Y-45499820D02*
X255326190Y-44499820D01*
X255326190Y-44499820D02*
X255230952Y-44642677D01*
X255230952Y-44642677D02*
X255135714Y-44737915D01*
X255135714Y-44737915D02*
X255040476Y-44785534D01*
D11*
X278736190Y-28028668D02*
X278736190Y-28542715D01*
X278736190Y-28542715D02*
X278766428Y-28603191D01*
X278766428Y-28603191D02*
X278796666Y-28633430D01*
X278796666Y-28633430D02*
X278857142Y-28663668D01*
X278857142Y-28663668D02*
X278978095Y-28663668D01*
X278978095Y-28663668D02*
X279038571Y-28633430D01*
X279038571Y-28633430D02*
X279068809Y-28603191D01*
X279068809Y-28603191D02*
X279099047Y-28542715D01*
X279099047Y-28542715D02*
X279099047Y-28028668D01*
X279734047Y-28663668D02*
X279371190Y-28663668D01*
X279552618Y-28663668D02*
X279552618Y-28028668D01*
X279552618Y-28028668D02*
X279492142Y-28119382D01*
X279492142Y-28119382D02*
X279431666Y-28179858D01*
X279431666Y-28179858D02*
X279371190Y-28210096D01*
D10*
X239269819Y-62728095D02*
X238269819Y-62728095D01*
X238269819Y-62728095D02*
X238269819Y-62490000D01*
X238269819Y-62490000D02*
X238317438Y-62347143D01*
X238317438Y-62347143D02*
X238412676Y-62251905D01*
X238412676Y-62251905D02*
X238507914Y-62204286D01*
X238507914Y-62204286D02*
X238698390Y-62156667D01*
X238698390Y-62156667D02*
X238841247Y-62156667D01*
X238841247Y-62156667D02*
X239031723Y-62204286D01*
X239031723Y-62204286D02*
X239126961Y-62251905D01*
X239126961Y-62251905D02*
X239222200Y-62347143D01*
X239222200Y-62347143D02*
X239269819Y-62490000D01*
X239269819Y-62490000D02*
X239269819Y-62728095D01*
X239269819Y-61204286D02*
X239269819Y-61775714D01*
X239269819Y-61490000D02*
X238269819Y-61490000D01*
X238269819Y-61490000D02*
X238412676Y-61585238D01*
X238412676Y-61585238D02*
X238507914Y-61680476D01*
X238507914Y-61680476D02*
X238555533Y-61775714D01*
X277235714Y-90179819D02*
X277235714Y-89179819D01*
X277235714Y-89179819D02*
X277473809Y-89179819D01*
X277473809Y-89179819D02*
X277616666Y-89227438D01*
X277616666Y-89227438D02*
X277711904Y-89322676D01*
X277711904Y-89322676D02*
X277759523Y-89417914D01*
X277759523Y-89417914D02*
X277807142Y-89608390D01*
X277807142Y-89608390D02*
X277807142Y-89751247D01*
X277807142Y-89751247D02*
X277759523Y-89941723D01*
X277759523Y-89941723D02*
X277711904Y-90036961D01*
X277711904Y-90036961D02*
X277616666Y-90132200D01*
X277616666Y-90132200D02*
X277473809Y-90179819D01*
X277473809Y-90179819D02*
X277235714Y-90179819D01*
X278759523Y-90179819D02*
X278188095Y-90179819D01*
X278473809Y-90179819D02*
X278473809Y-89179819D01*
X278473809Y-89179819D02*
X278378571Y-89322676D01*
X278378571Y-89322676D02*
X278283333Y-89417914D01*
X278283333Y-89417914D02*
X278188095Y-89465533D01*
X279664285Y-89179819D02*
X279188095Y-89179819D01*
X279188095Y-89179819D02*
X279140476Y-89656009D01*
X279140476Y-89656009D02*
X279188095Y-89608390D01*
X279188095Y-89608390D02*
X279283333Y-89560771D01*
X279283333Y-89560771D02*
X279521428Y-89560771D01*
X279521428Y-89560771D02*
X279616666Y-89608390D01*
X279616666Y-89608390D02*
X279664285Y-89656009D01*
X279664285Y-89656009D02*
X279711904Y-89751247D01*
X279711904Y-89751247D02*
X279711904Y-89989342D01*
X279711904Y-89989342D02*
X279664285Y-90084580D01*
X279664285Y-90084580D02*
X279616666Y-90132200D01*
X279616666Y-90132200D02*
X279521428Y-90179819D01*
X279521428Y-90179819D02*
X279283333Y-90179819D01*
X279283333Y-90179819D02*
X279188095Y-90132200D01*
X279188095Y-90132200D02*
X279140476Y-90084580D01*
X275478571Y-91962295D02*
X275021428Y-91962295D01*
X275250000Y-91962295D02*
X275250000Y-91162295D01*
X275250000Y-91162295D02*
X275173809Y-91276580D01*
X275173809Y-91276580D02*
X275097619Y-91352771D01*
X275097619Y-91352771D02*
X275021428Y-91390866D01*
X230116667Y-97893200D02*
X230259524Y-97940819D01*
X230259524Y-97940819D02*
X230497619Y-97940819D01*
X230497619Y-97940819D02*
X230592857Y-97893200D01*
X230592857Y-97893200D02*
X230640476Y-97845580D01*
X230640476Y-97845580D02*
X230688095Y-97750342D01*
X230688095Y-97750342D02*
X230688095Y-97655104D01*
X230688095Y-97655104D02*
X230640476Y-97559866D01*
X230640476Y-97559866D02*
X230592857Y-97512247D01*
X230592857Y-97512247D02*
X230497619Y-97464628D01*
X230497619Y-97464628D02*
X230307143Y-97417009D01*
X230307143Y-97417009D02*
X230211905Y-97369390D01*
X230211905Y-97369390D02*
X230164286Y-97321771D01*
X230164286Y-97321771D02*
X230116667Y-97226533D01*
X230116667Y-97226533D02*
X230116667Y-97131295D01*
X230116667Y-97131295D02*
X230164286Y-97036057D01*
X230164286Y-97036057D02*
X230211905Y-96988438D01*
X230211905Y-96988438D02*
X230307143Y-96940819D01*
X230307143Y-96940819D02*
X230545238Y-96940819D01*
X230545238Y-96940819D02*
X230688095Y-96988438D01*
X231021429Y-96940819D02*
X231259524Y-97940819D01*
X231259524Y-97940819D02*
X231450000Y-97226533D01*
X231450000Y-97226533D02*
X231640476Y-97940819D01*
X231640476Y-97940819D02*
X231878572Y-96940819D01*
X232688095Y-97274152D02*
X232688095Y-97940819D01*
X232450000Y-96893200D02*
X232211905Y-97607485D01*
X232211905Y-97607485D02*
X232830952Y-97607485D01*
X253835714Y-90179819D02*
X253835714Y-89179819D01*
X253835714Y-89179819D02*
X254073809Y-89179819D01*
X254073809Y-89179819D02*
X254216666Y-89227438D01*
X254216666Y-89227438D02*
X254311904Y-89322676D01*
X254311904Y-89322676D02*
X254359523Y-89417914D01*
X254359523Y-89417914D02*
X254407142Y-89608390D01*
X254407142Y-89608390D02*
X254407142Y-89751247D01*
X254407142Y-89751247D02*
X254359523Y-89941723D01*
X254359523Y-89941723D02*
X254311904Y-90036961D01*
X254311904Y-90036961D02*
X254216666Y-90132200D01*
X254216666Y-90132200D02*
X254073809Y-90179819D01*
X254073809Y-90179819D02*
X253835714Y-90179819D01*
X255359523Y-90179819D02*
X254788095Y-90179819D01*
X255073809Y-90179819D02*
X255073809Y-89179819D01*
X255073809Y-89179819D02*
X254978571Y-89322676D01*
X254978571Y-89322676D02*
X254883333Y-89417914D01*
X254883333Y-89417914D02*
X254788095Y-89465533D01*
X256216666Y-89513152D02*
X256216666Y-90179819D01*
X255978571Y-89132200D02*
X255740476Y-89846485D01*
X255740476Y-89846485D02*
X256359523Y-89846485D01*
X252078571Y-91962295D02*
X251621428Y-91962295D01*
X251850000Y-91962295D02*
X251850000Y-91162295D01*
X251850000Y-91162295D02*
X251773809Y-91276580D01*
X251773809Y-91276580D02*
X251697619Y-91352771D01*
X251697619Y-91352771D02*
X251621428Y-91390866D01*
X241174819Y-105513094D02*
X240174819Y-105513094D01*
X240174819Y-105513094D02*
X240174819Y-105274999D01*
X240174819Y-105274999D02*
X240222438Y-105132142D01*
X240222438Y-105132142D02*
X240317676Y-105036904D01*
X240317676Y-105036904D02*
X240412914Y-104989285D01*
X240412914Y-104989285D02*
X240603390Y-104941666D01*
X240603390Y-104941666D02*
X240746247Y-104941666D01*
X240746247Y-104941666D02*
X240936723Y-104989285D01*
X240936723Y-104989285D02*
X241031961Y-105036904D01*
X241031961Y-105036904D02*
X241127200Y-105132142D01*
X241127200Y-105132142D02*
X241174819Y-105274999D01*
X241174819Y-105274999D02*
X241174819Y-105513094D01*
X240174819Y-104036904D02*
X240174819Y-104513094D01*
X240174819Y-104513094D02*
X240651009Y-104560713D01*
X240651009Y-104560713D02*
X240603390Y-104513094D01*
X240603390Y-104513094D02*
X240555771Y-104417856D01*
X240555771Y-104417856D02*
X240555771Y-104179761D01*
X240555771Y-104179761D02*
X240603390Y-104084523D01*
X240603390Y-104084523D02*
X240651009Y-104036904D01*
X240651009Y-104036904D02*
X240746247Y-103989285D01*
X240746247Y-103989285D02*
X240984342Y-103989285D01*
X240984342Y-103989285D02*
X241079580Y-104036904D01*
X241079580Y-104036904D02*
X241127200Y-104084523D01*
X241127200Y-104084523D02*
X241174819Y-104179761D01*
X241174819Y-104179761D02*
X241174819Y-104417856D01*
X241174819Y-104417856D02*
X241127200Y-104513094D01*
X241127200Y-104513094D02*
X241079580Y-104560713D01*
X230433714Y-68570819D02*
X230433714Y-67570819D01*
X230433714Y-67570819D02*
X230671809Y-67570819D01*
X230671809Y-67570819D02*
X230814666Y-67618438D01*
X230814666Y-67618438D02*
X230909904Y-67713676D01*
X230909904Y-67713676D02*
X230957523Y-67808914D01*
X230957523Y-67808914D02*
X231005142Y-67999390D01*
X231005142Y-67999390D02*
X231005142Y-68142247D01*
X231005142Y-68142247D02*
X230957523Y-68332723D01*
X230957523Y-68332723D02*
X230909904Y-68427961D01*
X230909904Y-68427961D02*
X230814666Y-68523200D01*
X230814666Y-68523200D02*
X230671809Y-68570819D01*
X230671809Y-68570819D02*
X230433714Y-68570819D01*
X231957523Y-68570819D02*
X231386095Y-68570819D01*
X231671809Y-68570819D02*
X231671809Y-67570819D01*
X231671809Y-67570819D02*
X231576571Y-67713676D01*
X231576571Y-67713676D02*
X231481333Y-67808914D01*
X231481333Y-67808914D02*
X231386095Y-67856533D01*
X232576571Y-67570819D02*
X232671809Y-67570819D01*
X232671809Y-67570819D02*
X232767047Y-67618438D01*
X232767047Y-67618438D02*
X232814666Y-67666057D01*
X232814666Y-67666057D02*
X232862285Y-67761295D01*
X232862285Y-67761295D02*
X232909904Y-67951771D01*
X232909904Y-67951771D02*
X232909904Y-68189866D01*
X232909904Y-68189866D02*
X232862285Y-68380342D01*
X232862285Y-68380342D02*
X232814666Y-68475580D01*
X232814666Y-68475580D02*
X232767047Y-68523200D01*
X232767047Y-68523200D02*
X232671809Y-68570819D01*
X232671809Y-68570819D02*
X232576571Y-68570819D01*
X232576571Y-68570819D02*
X232481333Y-68523200D01*
X232481333Y-68523200D02*
X232433714Y-68475580D01*
X232433714Y-68475580D02*
X232386095Y-68380342D01*
X232386095Y-68380342D02*
X232338476Y-68189866D01*
X232338476Y-68189866D02*
X232338476Y-67951771D01*
X232338476Y-67951771D02*
X232386095Y-67761295D01*
X232386095Y-67761295D02*
X232433714Y-67666057D01*
X232433714Y-67666057D02*
X232481333Y-67618438D01*
X232481333Y-67618438D02*
X232576571Y-67570819D01*
X228676571Y-70353295D02*
X228219428Y-70353295D01*
X228448000Y-70353295D02*
X228448000Y-69553295D01*
X228448000Y-69553295D02*
X228371809Y-69667580D01*
X228371809Y-69667580D02*
X228295619Y-69743771D01*
X228295619Y-69743771D02*
X228219428Y-69781866D01*
X231010714Y-112129819D02*
X231010714Y-111129819D01*
X231010714Y-111129819D02*
X231248809Y-111129819D01*
X231248809Y-111129819D02*
X231391666Y-111177438D01*
X231391666Y-111177438D02*
X231486904Y-111272676D01*
X231486904Y-111272676D02*
X231534523Y-111367914D01*
X231534523Y-111367914D02*
X231582142Y-111558390D01*
X231582142Y-111558390D02*
X231582142Y-111701247D01*
X231582142Y-111701247D02*
X231534523Y-111891723D01*
X231534523Y-111891723D02*
X231486904Y-111986961D01*
X231486904Y-111986961D02*
X231391666Y-112082200D01*
X231391666Y-112082200D02*
X231248809Y-112129819D01*
X231248809Y-112129819D02*
X231010714Y-112129819D01*
X232534523Y-112129819D02*
X231963095Y-112129819D01*
X232248809Y-112129819D02*
X232248809Y-111129819D01*
X232248809Y-111129819D02*
X232153571Y-111272676D01*
X232153571Y-111272676D02*
X232058333Y-111367914D01*
X232058333Y-111367914D02*
X231963095Y-111415533D01*
X233391666Y-111129819D02*
X233201190Y-111129819D01*
X233201190Y-111129819D02*
X233105952Y-111177438D01*
X233105952Y-111177438D02*
X233058333Y-111225057D01*
X233058333Y-111225057D02*
X232963095Y-111367914D01*
X232963095Y-111367914D02*
X232915476Y-111558390D01*
X232915476Y-111558390D02*
X232915476Y-111939342D01*
X232915476Y-111939342D02*
X232963095Y-112034580D01*
X232963095Y-112034580D02*
X233010714Y-112082200D01*
X233010714Y-112082200D02*
X233105952Y-112129819D01*
X233105952Y-112129819D02*
X233296428Y-112129819D01*
X233296428Y-112129819D02*
X233391666Y-112082200D01*
X233391666Y-112082200D02*
X233439285Y-112034580D01*
X233439285Y-112034580D02*
X233486904Y-111939342D01*
X233486904Y-111939342D02*
X233486904Y-111701247D01*
X233486904Y-111701247D02*
X233439285Y-111606009D01*
X233439285Y-111606009D02*
X233391666Y-111558390D01*
X233391666Y-111558390D02*
X233296428Y-111510771D01*
X233296428Y-111510771D02*
X233105952Y-111510771D01*
X233105952Y-111510771D02*
X233010714Y-111558390D01*
X233010714Y-111558390D02*
X232963095Y-111606009D01*
X232963095Y-111606009D02*
X232915476Y-111701247D01*
X229253571Y-113912295D02*
X228796428Y-113912295D01*
X229025000Y-113912295D02*
X229025000Y-113112295D01*
X229025000Y-113112295D02*
X228948809Y-113226580D01*
X228948809Y-113226580D02*
X228872619Y-113302771D01*
X228872619Y-113302771D02*
X228796428Y-113340866D01*
X253750914Y-68570819D02*
X253750914Y-67570819D01*
X253750914Y-67570819D02*
X253989009Y-67570819D01*
X253989009Y-67570819D02*
X254131866Y-67618438D01*
X254131866Y-67618438D02*
X254227104Y-67713676D01*
X254227104Y-67713676D02*
X254274723Y-67808914D01*
X254274723Y-67808914D02*
X254322342Y-67999390D01*
X254322342Y-67999390D02*
X254322342Y-68142247D01*
X254322342Y-68142247D02*
X254274723Y-68332723D01*
X254274723Y-68332723D02*
X254227104Y-68427961D01*
X254227104Y-68427961D02*
X254131866Y-68523200D01*
X254131866Y-68523200D02*
X253989009Y-68570819D01*
X253989009Y-68570819D02*
X253750914Y-68570819D01*
X255274723Y-68570819D02*
X254703295Y-68570819D01*
X254989009Y-68570819D02*
X254989009Y-67570819D01*
X254989009Y-67570819D02*
X254893771Y-67713676D01*
X254893771Y-67713676D02*
X254798533Y-67808914D01*
X254798533Y-67808914D02*
X254703295Y-67856533D01*
X256227104Y-68570819D02*
X255655676Y-68570819D01*
X255941390Y-68570819D02*
X255941390Y-67570819D01*
X255941390Y-67570819D02*
X255846152Y-67713676D01*
X255846152Y-67713676D02*
X255750914Y-67808914D01*
X255750914Y-67808914D02*
X255655676Y-67856533D01*
X251993771Y-70353295D02*
X251536628Y-70353295D01*
X251765200Y-70353295D02*
X251765200Y-69553295D01*
X251765200Y-69553295D02*
X251689009Y-69667580D01*
X251689009Y-69667580D02*
X251612819Y-69743771D01*
X251612819Y-69743771D02*
X251536628Y-69781866D01*
X254210714Y-111904819D02*
X254210714Y-110904819D01*
X254210714Y-110904819D02*
X254448809Y-110904819D01*
X254448809Y-110904819D02*
X254591666Y-110952438D01*
X254591666Y-110952438D02*
X254686904Y-111047676D01*
X254686904Y-111047676D02*
X254734523Y-111142914D01*
X254734523Y-111142914D02*
X254782142Y-111333390D01*
X254782142Y-111333390D02*
X254782142Y-111476247D01*
X254782142Y-111476247D02*
X254734523Y-111666723D01*
X254734523Y-111666723D02*
X254686904Y-111761961D01*
X254686904Y-111761961D02*
X254591666Y-111857200D01*
X254591666Y-111857200D02*
X254448809Y-111904819D01*
X254448809Y-111904819D02*
X254210714Y-111904819D01*
X255734523Y-111904819D02*
X255163095Y-111904819D01*
X255448809Y-111904819D02*
X255448809Y-110904819D01*
X255448809Y-110904819D02*
X255353571Y-111047676D01*
X255353571Y-111047676D02*
X255258333Y-111142914D01*
X255258333Y-111142914D02*
X255163095Y-111190533D01*
X256067857Y-110904819D02*
X256734523Y-110904819D01*
X256734523Y-110904819D02*
X256305952Y-111904819D01*
X252453571Y-113687295D02*
X251996428Y-113687295D01*
X252225000Y-113687295D02*
X252225000Y-112887295D01*
X252225000Y-112887295D02*
X252148809Y-113001580D01*
X252148809Y-113001580D02*
X252072619Y-113077771D01*
X252072619Y-113077771D02*
X251996428Y-113115866D01*
X252553333Y-44364819D02*
X252220000Y-43888628D01*
X251981905Y-44364819D02*
X251981905Y-43364819D01*
X251981905Y-43364819D02*
X252362857Y-43364819D01*
X252362857Y-43364819D02*
X252458095Y-43412438D01*
X252458095Y-43412438D02*
X252505714Y-43460057D01*
X252505714Y-43460057D02*
X252553333Y-43555295D01*
X252553333Y-43555295D02*
X252553333Y-43698152D01*
X252553333Y-43698152D02*
X252505714Y-43793390D01*
X252505714Y-43793390D02*
X252458095Y-43841009D01*
X252458095Y-43841009D02*
X252362857Y-43888628D01*
X252362857Y-43888628D02*
X251981905Y-43888628D01*
X252934286Y-43460057D02*
X252981905Y-43412438D01*
X252981905Y-43412438D02*
X253077143Y-43364819D01*
X253077143Y-43364819D02*
X253315238Y-43364819D01*
X253315238Y-43364819D02*
X253410476Y-43412438D01*
X253410476Y-43412438D02*
X253458095Y-43460057D01*
X253458095Y-43460057D02*
X253505714Y-43555295D01*
X253505714Y-43555295D02*
X253505714Y-43650533D01*
X253505714Y-43650533D02*
X253458095Y-43793390D01*
X253458095Y-43793390D02*
X252886667Y-44364819D01*
X252886667Y-44364819D02*
X253505714Y-44364819D01*
X253776667Y-54023200D02*
X253919524Y-54070819D01*
X253919524Y-54070819D02*
X254157619Y-54070819D01*
X254157619Y-54070819D02*
X254252857Y-54023200D01*
X254252857Y-54023200D02*
X254300476Y-53975580D01*
X254300476Y-53975580D02*
X254348095Y-53880342D01*
X254348095Y-53880342D02*
X254348095Y-53785104D01*
X254348095Y-53785104D02*
X254300476Y-53689866D01*
X254300476Y-53689866D02*
X254252857Y-53642247D01*
X254252857Y-53642247D02*
X254157619Y-53594628D01*
X254157619Y-53594628D02*
X253967143Y-53547009D01*
X253967143Y-53547009D02*
X253871905Y-53499390D01*
X253871905Y-53499390D02*
X253824286Y-53451771D01*
X253824286Y-53451771D02*
X253776667Y-53356533D01*
X253776667Y-53356533D02*
X253776667Y-53261295D01*
X253776667Y-53261295D02*
X253824286Y-53166057D01*
X253824286Y-53166057D02*
X253871905Y-53118438D01*
X253871905Y-53118438D02*
X253967143Y-53070819D01*
X253967143Y-53070819D02*
X254205238Y-53070819D01*
X254205238Y-53070819D02*
X254348095Y-53118438D01*
X254681429Y-53070819D02*
X254919524Y-54070819D01*
X254919524Y-54070819D02*
X255110000Y-53356533D01*
X255110000Y-53356533D02*
X255300476Y-54070819D01*
X255300476Y-54070819D02*
X255538572Y-53070819D01*
X255871905Y-53166057D02*
X255919524Y-53118438D01*
X255919524Y-53118438D02*
X256014762Y-53070819D01*
X256014762Y-53070819D02*
X256252857Y-53070819D01*
X256252857Y-53070819D02*
X256348095Y-53118438D01*
X256348095Y-53118438D02*
X256395714Y-53166057D01*
X256395714Y-53166057D02*
X256443333Y-53261295D01*
X256443333Y-53261295D02*
X256443333Y-53356533D01*
X256443333Y-53356533D02*
X256395714Y-53499390D01*
X256395714Y-53499390D02*
X255824286Y-54070819D01*
X255824286Y-54070819D02*
X256443333Y-54070819D01*
%TO.C,D7*%
D12*
X285535000Y-86304999D02*
X285535000Y-83644999D01*
X285535000Y-86304999D02*
X287235000Y-86304999D01*
X287235000Y-86304999D02*
X287235000Y-83644999D01*
%TO.C,C2*%
X245782164Y-44580000D02*
X245997836Y-44580000D01*
X245782164Y-45300000D02*
X245997836Y-45300000D01*
%TO.C,SW10*%
X222650000Y-35875000D02*
X223250000Y-35875000D01*
X222950000Y-36175000D02*
X222650000Y-35875000D01*
X223250000Y-35875000D02*
X222950000Y-36175000D01*
X224350000Y-34075000D02*
X224350000Y-45875000D01*
X228450000Y-34075000D02*
X224350000Y-34075000D01*
X228450000Y-45875000D02*
X224350000Y-45875000D01*
X229950000Y-39975000D02*
X230950000Y-39975000D01*
X230450000Y-39475000D02*
X230450000Y-40475000D01*
X232450000Y-34075000D02*
X236550000Y-34075000D01*
X236550000Y-34075000D02*
X236550000Y-36475000D01*
X236550000Y-38675000D02*
X236550000Y-41275000D01*
X236550000Y-43475000D02*
X236550000Y-45875000D01*
X236550000Y-45875000D02*
X232450000Y-45875000D01*
X233450000Y-39975000D02*
G75*
G02*
X227450000Y-39975000I-3000000J0D01*
G01*
X227450000Y-39975000D02*
G75*
G02*
X233450000Y-39975000I3000000J0D01*
G01*
%TO.C,SW5*%
X248285000Y-97155000D02*
X262255000Y-97155000D01*
X248285000Y-111125000D02*
X248285000Y-97155000D01*
X262255000Y-97155000D02*
X262255000Y-111125000D01*
X262255000Y-111125000D02*
X248285000Y-111125000D01*
%TO.C,SW7*%
X224775000Y-76085000D02*
X238745000Y-76085000D01*
X224775000Y-90055000D02*
X224775000Y-76085000D01*
X238745000Y-76085000D02*
X238745000Y-90055000D01*
X238745000Y-90055000D02*
X224775000Y-90055000D01*
%TO.C,R1*%
X261526360Y-44870000D02*
X261833642Y-44870000D01*
X261526360Y-45630000D02*
X261833642Y-45630000D01*
%TO.C,100nF1*%
X264132164Y-45600000D02*
X264347836Y-45600000D01*
X264132164Y-46320000D02*
X264347836Y-46320000D01*
%TO.C,SW9*%
X271145000Y-76200000D02*
X285115000Y-76200000D01*
X271145000Y-90170000D02*
X271145000Y-76200000D01*
X285115000Y-76200000D02*
X285115000Y-90170000D01*
X285115000Y-90170000D02*
X271145000Y-90170000D01*
%TO.C,D4*%
X285535000Y-105510001D02*
X285535000Y-102850001D01*
X285535000Y-105510001D02*
X287235000Y-105510001D01*
X287235000Y-105510001D02*
X287235000Y-102850001D01*
%TO.C,D2*%
X262675000Y-63840000D02*
X262675000Y-61180000D01*
X262675000Y-63840000D02*
X264375000Y-63840000D01*
X264375000Y-63840000D02*
X264375000Y-61180000D01*
%TO.C,C5*%
X264192164Y-44540000D02*
X264407836Y-44540000D01*
X264192164Y-45260000D02*
X264407836Y-45260000D01*
%TO.C,D8*%
X262675000Y-84160000D02*
X262675000Y-81500000D01*
X262675000Y-84160000D02*
X264375000Y-84160000D01*
X264375000Y-84160000D02*
X264375000Y-81500000D01*
%TO.C,SW1*%
X224935000Y-54635000D02*
X238905000Y-54635000D01*
X224935000Y-68605000D02*
X224935000Y-54635000D01*
X238905000Y-54635000D02*
X238905000Y-68605000D01*
X238905000Y-68605000D02*
X224935000Y-68605000D01*
%TO.C,SW8*%
X248285000Y-76085000D02*
X262255000Y-76085000D01*
X248285000Y-90055000D02*
X248285000Y-76085000D01*
X262255000Y-76085000D02*
X262255000Y-90055000D01*
X262255000Y-90055000D02*
X248285000Y-90055000D01*
%TO.C,D6*%
X262675000Y-105115000D02*
X262675000Y-102455000D01*
X262675000Y-105115000D02*
X264375000Y-105115000D01*
X264375000Y-105115000D02*
X264375000Y-102455000D01*
%TO.C,C4*%
X254449190Y-45301693D02*
X254601693Y-45149190D01*
X254958307Y-45810810D02*
X255110810Y-45658307D01*
%TO.C,C3*%
X250581693Y-45570810D02*
X250429190Y-45418307D01*
X251090810Y-45061693D02*
X250938307Y-44909190D01*
%TO.C,D9*%
X239180000Y-85669999D02*
X239180000Y-83009999D01*
X239180000Y-85669999D02*
X240880000Y-85669999D01*
X240880000Y-85669999D02*
X240880000Y-83009999D01*
%TO.C,D3*%
X285535000Y-63840000D02*
X285535000Y-61180000D01*
X285535000Y-63840000D02*
X287235000Y-63840000D01*
X287235000Y-63840000D02*
X287235000Y-61180000D01*
%TO.C,SW3*%
X271315000Y-54495000D02*
X285285000Y-54495000D01*
X271315000Y-68465000D02*
X271315000Y-54495000D01*
X285285000Y-54495000D02*
X285285000Y-68465000D01*
X285285000Y-68465000D02*
X271315000Y-68465000D01*
%TO.C,D13*%
X228975000Y-90475000D02*
X228975000Y-94475000D01*
X228975000Y-90475000D02*
X234575000Y-90475000D01*
X228975000Y-94475000D02*
X233975000Y-94475000D01*
X234575000Y-93875000D02*
X233975000Y-94475000D01*
X234575000Y-93875000D02*
X234575000Y-90475000D01*
%TO.C,SW6*%
X271145000Y-97155000D02*
X285115000Y-97155000D01*
X271145000Y-111125000D02*
X271145000Y-97155000D01*
X285115000Y-97155000D02*
X285115000Y-111125000D01*
X285115000Y-111125000D02*
X271145000Y-111125000D01*
%TO.C,D12*%
X275482400Y-68866000D02*
X275482400Y-72866000D01*
X275482400Y-68866000D02*
X281082400Y-68866000D01*
X275482400Y-72866000D02*
X280482400Y-72866000D01*
X281082400Y-72266000D02*
X280482400Y-72866000D01*
X281082400Y-72266000D02*
X281082400Y-68866000D01*
%TO.C,C1*%
X248447836Y-44570000D02*
X248232164Y-44570000D01*
X248447836Y-45290000D02*
X248232164Y-45290000D01*
%TO.C,D18*%
X276100000Y-112375000D02*
X276100000Y-116375000D01*
X276100000Y-112375000D02*
X281700000Y-112375000D01*
X276100000Y-116375000D02*
X281100000Y-116375000D01*
X281700000Y-115775000D02*
X281100000Y-116375000D01*
X281700000Y-115775000D02*
X281700000Y-112375000D01*
%TO.C,DS1*%
X243550000Y-41945001D02*
X243550000Y-44095001D01*
X243550000Y-44095001D02*
X265850000Y-44095001D01*
X265850000Y-44095001D02*
X265850000Y-41945001D01*
D13*
X247050001Y-39195001D02*
G75*
G02*
X246349999Y-39195001I-350001J0D01*
G01*
X246349999Y-39195001D02*
G75*
G02*
X247050001Y-39195001I350001J0D01*
G01*
X263050000Y-39195001D02*
G75*
G02*
X262350000Y-39195001I-350000J0D01*
G01*
X262350000Y-39195001D02*
G75*
G02*
X263050000Y-39195001I350000J0D01*
G01*
%TO.C,U1*%
X270280000Y-48134189D02*
X270280000Y-30989189D01*
X272185000Y-50039189D02*
X286155000Y-50039189D01*
D14*
X274672000Y-29072189D02*
X274672716Y-27530905D01*
X275172716Y-27031177D02*
X283167988Y-27031177D01*
X283667988Y-27531177D02*
X283669000Y-29075189D01*
D13*
X286154999Y-29084189D02*
X272185001Y-29084189D01*
X288060000Y-48134189D02*
X288060000Y-30989189D01*
X270280000Y-30985189D02*
G75*
G02*
X272185000Y-29080189I1905000J0D01*
G01*
X272185000Y-50039189D02*
G75*
G02*
X270280000Y-48134189I1J1905001D01*
G01*
D14*
X274672716Y-27530905D02*
G75*
G02*
X275172716Y-27031205I500084J-384D01*
G01*
X283167988Y-27031177D02*
G75*
G02*
X283668012Y-27531177I12J-500012D01*
G01*
D13*
X286154999Y-29084189D02*
G75*
G02*
X288060000Y-30989189I1J-1905000D01*
G01*
X288060000Y-48134189D02*
G75*
G02*
X286155000Y-50039189I-1905001J1D01*
G01*
D15*
X270305988Y-29488177D02*
G75*
G02*
X269801988Y-29488177I-252000J0D01*
G01*
X269801988Y-29488177D02*
G75*
G02*
X270305988Y-29488177I252000J0D01*
G01*
X271522988Y-30211177D02*
G75*
G02*
X271018988Y-30211177I-252000J0D01*
G01*
X271018988Y-30211177D02*
G75*
G02*
X271522988Y-30211177I252000J0D01*
G01*
%TO.C,D1*%
D12*
X239815000Y-63600001D02*
X239815000Y-60940001D01*
X239815000Y-63600001D02*
X241515000Y-63600001D01*
X241515000Y-63600001D02*
X241515000Y-60940001D01*
%TO.C,D15*%
X275650000Y-90475000D02*
X275650000Y-94475000D01*
X275650000Y-90475000D02*
X281250000Y-90475000D01*
X275650000Y-94475000D02*
X280650000Y-94475000D01*
X281250000Y-93875000D02*
X280650000Y-94475000D01*
X281250000Y-93875000D02*
X281250000Y-90475000D01*
%TO.C,SW4*%
X224465000Y-98375000D02*
X238435000Y-98375000D01*
X224465000Y-112345000D02*
X224465000Y-98375000D01*
X238435000Y-98375000D02*
X238435000Y-112345000D01*
X238435000Y-112345000D02*
X224465000Y-112345000D01*
%TO.C,D14*%
X252250000Y-90475000D02*
X252250000Y-94475000D01*
X252250000Y-90475000D02*
X257850000Y-90475000D01*
X252250000Y-94475000D02*
X257250000Y-94475000D01*
X257850000Y-93875000D02*
X257250000Y-94475000D01*
X257850000Y-93875000D02*
X257850000Y-90475000D01*
%TO.C,D5*%
X241720000Y-106385000D02*
X241720000Y-103725000D01*
X241720000Y-106385000D02*
X243420000Y-106385000D01*
X243420000Y-106385000D02*
X243420000Y-103725000D01*
%TO.C,D10*%
X228848000Y-68866000D02*
X228848000Y-72866000D01*
X228848000Y-68866000D02*
X234448000Y-68866000D01*
X228848000Y-72866000D02*
X233848000Y-72866000D01*
X234448000Y-72266000D02*
X233848000Y-72866000D01*
X234448000Y-72266000D02*
X234448000Y-68866000D01*
%TO.C,D16*%
X229425000Y-112425000D02*
X229425000Y-116425000D01*
X229425000Y-112425000D02*
X235025000Y-112425000D01*
X229425000Y-116425000D02*
X234425000Y-116425000D01*
X235025000Y-115825000D02*
X234425000Y-116425000D01*
X235025000Y-115825000D02*
X235025000Y-112425000D01*
%TO.C,D11*%
X252165200Y-68866000D02*
X252165200Y-72866000D01*
X252165200Y-68866000D02*
X257765200Y-68866000D01*
X252165200Y-72866000D02*
X257165200Y-72866000D01*
X257765200Y-72266000D02*
X257165200Y-72866000D01*
X257765200Y-72266000D02*
X257765200Y-68866000D01*
%TO.C,D17*%
X252625000Y-112200000D02*
X252625000Y-116200000D01*
X252625000Y-112200000D02*
X258225000Y-112200000D01*
X252625000Y-116200000D02*
X257625000Y-116200000D01*
X258225000Y-115600000D02*
X257625000Y-116200000D01*
X258225000Y-115600000D02*
X258225000Y-112200000D01*
%TO.C,R2*%
X252566359Y-44700000D02*
X252873641Y-44700000D01*
X252566359Y-45460000D02*
X252873641Y-45460000D01*
%TO.C,SW2*%
X248125000Y-54505000D02*
X262095000Y-54505000D01*
X248125000Y-68475000D02*
X248125000Y-54505000D01*
X262095000Y-54505000D02*
X262095000Y-68475000D01*
X262095000Y-68475000D02*
X248125000Y-68475000D01*
%TD*%
%LPC*%
D16*
%TO.C,D7*%
X286385000Y-85744999D03*
X286385000Y-83644999D03*
%TD*%
D17*
%TO.C,C2*%
X245410000Y-44940000D03*
X246370000Y-44940000D03*
%TD*%
D18*
%TO.C,SW10*%
X222950000Y-37475000D03*
D19*
X222950000Y-42475000D03*
X222950000Y-39975000D03*
D20*
X230450000Y-34375000D03*
X230450000Y-45575000D03*
D19*
X237450000Y-42475000D03*
X237450000Y-37475000D03*
%TD*%
D21*
%TO.C,SW5*%
X250190000Y-104140000D03*
D22*
X255270000Y-104140000D03*
D21*
X260350000Y-104140000D03*
D23*
X257810000Y-99060000D03*
X251460000Y-101600000D03*
%TD*%
D21*
%TO.C,SW7*%
X226680000Y-83070000D03*
D22*
X231760000Y-83070000D03*
D21*
X236840000Y-83070000D03*
D23*
X234300000Y-77990000D03*
X227950000Y-80530000D03*
%TD*%
D24*
%TO.C,R1*%
X261170002Y-45250000D03*
X262190000Y-45250000D03*
%TD*%
D17*
%TO.C,100nF1*%
X263760000Y-45960000D03*
X264720000Y-45960000D03*
%TD*%
D21*
%TO.C,SW9*%
X273050000Y-83185000D03*
D22*
X278130000Y-83185000D03*
D21*
X283210000Y-83185000D03*
D23*
X280670000Y-78105000D03*
X274320000Y-80645000D03*
%TD*%
D16*
%TO.C,D4*%
X286385000Y-104950001D03*
X286385000Y-102850001D03*
%TD*%
%TO.C,D2*%
X263525000Y-63280000D03*
X263525000Y-61180000D03*
%TD*%
D17*
%TO.C,C5*%
X263820000Y-44900000D03*
X264780000Y-44900000D03*
%TD*%
D16*
%TO.C,D8*%
X263525000Y-83600000D03*
X263525000Y-81500000D03*
%TD*%
D21*
%TO.C,SW1*%
X226840000Y-61620000D03*
D22*
X231920000Y-61620000D03*
D21*
X237000000Y-61620000D03*
D23*
X234460000Y-56540000D03*
X228110000Y-59080000D03*
%TD*%
D21*
%TO.C,SW8*%
X250190000Y-83070000D03*
D22*
X255270000Y-83070000D03*
D21*
X260350000Y-83070000D03*
D23*
X257810000Y-77990000D03*
X251460000Y-80530000D03*
%TD*%
D16*
%TO.C,D6*%
X263525000Y-104555000D03*
X263525000Y-102455000D03*
%TD*%
D25*
%TO.C,C4*%
X254440589Y-45819411D03*
X255119411Y-45140589D03*
%TD*%
D26*
%TO.C,C3*%
X251099411Y-45579411D03*
X250420589Y-44900589D03*
%TD*%
D16*
%TO.C,D9*%
X240030000Y-85109999D03*
X240030000Y-83009999D03*
%TD*%
%TO.C,D3*%
X286385000Y-63280000D03*
X286385000Y-61180000D03*
%TD*%
D21*
%TO.C,SW3*%
X273220000Y-61480000D03*
D22*
X278300000Y-61480000D03*
D21*
X283380000Y-61480000D03*
D23*
X280840000Y-56400000D03*
X274490000Y-58940000D03*
%TD*%
D27*
%TO.C,D13*%
X230025000Y-91600000D03*
X230025000Y-93350000D03*
X233525000Y-93350000D03*
X233525000Y-91600000D03*
%TD*%
D21*
%TO.C,SW6*%
X273050000Y-104140000D03*
D22*
X278130000Y-104140000D03*
D21*
X283210000Y-104140000D03*
D23*
X280670000Y-99060000D03*
X274320000Y-101600000D03*
%TD*%
D27*
%TO.C,D12*%
X276532400Y-69991000D03*
X276532400Y-71741000D03*
X280032400Y-71741000D03*
X280032400Y-69991000D03*
%TD*%
D28*
%TO.C,C1*%
X248820000Y-44930000D03*
X247860000Y-44930000D03*
%TD*%
D27*
%TO.C,D18*%
X277150000Y-113500000D03*
X277150000Y-115250000D03*
X280650000Y-115250000D03*
X280650000Y-113500000D03*
%TD*%
D29*
%TO.C,DS1*%
X244550000Y-42945001D03*
X245250000Y-42945001D03*
X245950000Y-42945001D03*
X246649999Y-42945001D03*
X247350000Y-42945001D03*
X248050000Y-42945001D03*
X248750000Y-42945001D03*
X249449999Y-42945001D03*
X250150000Y-42945001D03*
X250850000Y-42945001D03*
X251550001Y-42945001D03*
X252249999Y-42945001D03*
X252950000Y-42945001D03*
X253650000Y-42945001D03*
X254350001Y-42945001D03*
X255049999Y-42945001D03*
X255750000Y-42945001D03*
X256450000Y-42945001D03*
X257150001Y-42945001D03*
X257849999Y-42945001D03*
X258550000Y-42945001D03*
X259250000Y-42945001D03*
X259950001Y-42945001D03*
X260650000Y-42945001D03*
X261350000Y-42945001D03*
X262050000Y-42945001D03*
X262750001Y-42945001D03*
X263450000Y-42945001D03*
X264150000Y-42945001D03*
X264850000Y-42945001D03*
%TD*%
D30*
%TO.C,U1*%
X271087500Y-32005189D03*
X271087500Y-34545189D03*
X271087500Y-37085189D03*
X271087499Y-39625189D03*
X271087500Y-42165189D03*
X271087500Y-44705189D03*
X271087500Y-47245189D03*
D31*
X287252500Y-47245189D03*
X287252500Y-44705189D03*
X287252500Y-42165189D03*
X287252501Y-39625189D03*
X287252500Y-37085189D03*
X287252500Y-34545189D03*
X287252500Y-32005189D03*
D21*
X284170994Y-35815189D03*
X284170994Y-38355189D03*
X284170994Y-40895189D03*
X284170994Y-43435189D03*
X274010994Y-43435189D03*
X274010993Y-40895189D03*
X274010993Y-38355189D03*
X274010994Y-35815189D03*
X277900000Y-30975189D03*
X280440000Y-30975189D03*
X277900000Y-33515189D03*
X280440000Y-33515189D03*
X277900000Y-36055189D03*
X280440000Y-36055189D03*
D32*
X278170000Y-44600000D03*
X280170000Y-44600000D03*
%TD*%
D16*
%TO.C,D1*%
X240665000Y-63040001D03*
X240665000Y-60940001D03*
%TD*%
D27*
%TO.C,D15*%
X276700000Y-91600000D03*
X276700000Y-93350000D03*
X280200000Y-93350000D03*
X280200000Y-91600000D03*
%TD*%
D21*
%TO.C,SW4*%
X226370000Y-105360000D03*
D22*
X231450000Y-105360000D03*
D21*
X236530000Y-105360000D03*
D23*
X233990000Y-100280000D03*
X227640000Y-102820000D03*
%TD*%
D27*
%TO.C,D14*%
X253300000Y-91600000D03*
X253300000Y-93350000D03*
X256800000Y-93350000D03*
X256800000Y-91600000D03*
%TD*%
D16*
%TO.C,D5*%
X242570000Y-105825000D03*
X242570000Y-103725000D03*
%TD*%
D27*
%TO.C,D10*%
X229898000Y-69991000D03*
X229898000Y-71741000D03*
X233398000Y-71741000D03*
X233398000Y-69991000D03*
%TD*%
%TO.C,D16*%
X230475000Y-113550000D03*
X230475000Y-115300000D03*
X233975000Y-115300000D03*
X233975000Y-113550000D03*
%TD*%
%TO.C,D11*%
X253215200Y-69991000D03*
X253215200Y-71741000D03*
X256715200Y-71741000D03*
X256715200Y-69991000D03*
%TD*%
%TO.C,D17*%
X253675000Y-113325000D03*
X253675000Y-115075000D03*
X257175000Y-115075000D03*
X257175000Y-113325000D03*
%TD*%
D24*
%TO.C,R2*%
X252210000Y-45080000D03*
X253230000Y-45080000D03*
%TD*%
D21*
%TO.C,SW2*%
X250030000Y-61490000D03*
D22*
X255110000Y-61490000D03*
D21*
X260190000Y-61490000D03*
D23*
X257650000Y-56410000D03*
X251300000Y-58950000D03*
%TD*%
%LPD*%
M02*
