M48
; DRILL file KiCad 10.0.3 date 2026-06-20T12:08:20
; FORMAT={-:-/ absolute / inch / decimal}
; #@! TF.CreationDate,2026-06-20T12:08:20+05:30
; #@! TF.GenerationSoftware,Kicad,Pcbnew,10.0.3
; #@! TF.FileFunction,Plated,1,2,PTH
FMAT,2
INCH
; #@! TA.AperFunction,Plated,PTH,ViaDrill
T1C0.0118
; #@! TA.AperFunction,Plated,PTH,ComponentDrill
T2C0.0394
; #@! TA.AperFunction,Plated,PTH,ComponentDrill
T3C0.0591
%
G90
G05
T1
X10.0197Y-1.752
X10.1378Y-1.811
X10.1673Y-1.7815
X10.625Y-1.875
X10.7623Y-1.6634
X10.8169Y-3.622
X10.8465Y-1.6732
X10.8465Y-4.4193
X10.8661Y-1.5157
X10.876Y-1.5945
X11.1122Y-1.7224
X11.122Y-1.6339
T2
X8.7776Y-1.4754
X8.7776Y-1.5738
X8.7776Y-1.6722
X9.3484Y-1.4754
X9.3484Y-1.6722
T3
X8.9622Y-4.048
X8.9744Y-3.1705
X8.9807Y-2.326
X9.2122Y-3.948
X9.2244Y-3.0705
X9.2307Y-2.226
X9.8937Y-2.3209
X9.9Y-3.1705
X9.9Y-4.0
X10.1437Y-2.2209
X10.15Y-3.0705
X10.15Y-3.9
X10.8Y-3.175
X10.8Y-4.0
X10.8067Y-2.3205
X11.05Y-3.075
X11.05Y-3.9
X11.0567Y-2.2205
T3
G00X9.0472Y-1.3533
M15
G01X9.0984Y-1.3533
M16
G05
G00X9.0472Y-1.7943
M15
G01X9.0984Y-1.7943
M16
G05
M30
