%TF.GenerationSoftware,KiCad,Pcbnew,10.0.3*%
%TF.CreationDate,2026-06-20T12:08:20+05:30*%
%TF.ProjectId,hackpad,6861636b-7061-4642-9e6b-696361645f70,rev?*%
%TF.SameCoordinates,Original*%
%TF.FileFunction,Legend,Bot*%
%TF.FilePolarity,Positive*%
%FSLAX46Y46*%
G04 Gerber Fmt 4.6, Leading zero omitted, Abs format (unit mm)*
G04 Created by KiCad (PCBNEW 10.0.3) date 2026-06-20 12:08:20*
%MOMM*%
%LPD*%
G01*
G04 APERTURE LIST*
%ADD10R,2.000000X2.000000*%
%ADD11C,2.000000*%
%ADD12R,3.200000X2.000000*%
%ADD13C,1.700000*%
%ADD14C,4.000000*%
%ADD15C,2.200000*%
G04 APERTURE END LIST*
%LPC*%
D10*
%TO.C,SW10*%
X222950000Y-37475000D03*
D11*
X222950000Y-42475000D03*
X222950000Y-39975000D03*
D12*
X230450000Y-34375000D03*
X230450000Y-45575000D03*
D11*
X237450000Y-42475000D03*
X237450000Y-37475000D03*
%TD*%
D13*
%TO.C,SW5*%
X250190000Y-104140000D03*
D14*
X255270000Y-104140000D03*
D13*
X260350000Y-104140000D03*
D15*
X257810000Y-99060000D03*
X251460000Y-101600000D03*
%TD*%
D13*
%TO.C,SW7*%
X226680000Y-83070000D03*
D14*
X231760000Y-83070000D03*
D13*
X236840000Y-83070000D03*
D15*
X234300000Y-77990000D03*
X227950000Y-80530000D03*
%TD*%
D13*
%TO.C,SW9*%
X273050000Y-83185000D03*
D14*
X278130000Y-83185000D03*
D13*
X283210000Y-83185000D03*
D15*
X280670000Y-78105000D03*
X274320000Y-80645000D03*
%TD*%
D13*
%TO.C,SW1*%
X226840000Y-61620000D03*
D14*
X231920000Y-61620000D03*
D13*
X237000000Y-61620000D03*
D15*
X234460000Y-56540000D03*
X228110000Y-59080000D03*
%TD*%
D13*
%TO.C,SW8*%
X250190000Y-83070000D03*
D14*
X255270000Y-83070000D03*
D13*
X260350000Y-83070000D03*
D15*
X257810000Y-77990000D03*
X251460000Y-80530000D03*
%TD*%
D13*
%TO.C,SW3*%
X273220000Y-61480000D03*
D14*
X278300000Y-61480000D03*
D13*
X283380000Y-61480000D03*
D15*
X280840000Y-56400000D03*
X274490000Y-58940000D03*
%TD*%
D13*
%TO.C,SW6*%
X273050000Y-104140000D03*
D14*
X278130000Y-104140000D03*
D13*
X283210000Y-104140000D03*
D15*
X280670000Y-99060000D03*
X274320000Y-101600000D03*
%TD*%
D13*
%TO.C,SW4*%
X226370000Y-105360000D03*
D14*
X231450000Y-105360000D03*
D13*
X236530000Y-105360000D03*
D15*
X233990000Y-100280000D03*
X227640000Y-102820000D03*
%TD*%
D13*
%TO.C,SW2*%
X250030000Y-61490000D03*
D14*
X255110000Y-61490000D03*
D13*
X260190000Y-61490000D03*
D15*
X257650000Y-56410000D03*
X251300000Y-58950000D03*
%TD*%
%LPD*%
M02*
